<?xml version="1.0" encoding="UTF-8"?>
<svg width="20px" height="20px" viewBox="0 0 20 20" version="1.1" xmlns="http://www.w3.org/2000/svg" xmlns:xlink="http://www.w3.org/1999/xlink">
    <title>Icons/solid/ grigio / calendar-date</title>
    <g id="Icons/solid/-grigio-/-calendar-date" stroke="none" stroke-width="1" fill="none" fill-rule="evenodd">
        <g id="calendar-date" transform="translate(2.000000, 2.000000)" fill="#868E96" fill-rule="nonzero">
            <path d="M3.70713868,12.9088283 L3.70713868,8.09387976 L3.15155061,8.09387976 C2.75363714,8.31203106 2.36906902,8.55500736 2,8.82144791 L2,9.44881748 C2.32913985,9.21682614 2.85049737,8.88914967 3.10415448,8.74742733 L3.11468695,8.74742733 L3.11468695,12.9088283 L3.70713868,12.9088283 L3.70713868,12.9088283 Z M4.74985372,11.7308178 C4.79110591,12.3085394 5.27121123,13 6.24458748,13 C7.34874195,13 8,12.0377324 8,10.408377 C8,8.66257447 7.31451141,8 6.28583967,8 C5.47308367,8 4.70860152,8.60660769 4.70860152,9.63296624 C4.70860152,10.6800867 5.43183148,11.2307276 6.17963721,11.2307276 C6.83440609,11.2307276 7.25921592,10.8913161 7.39350497,10.5176025 L7.41720304,10.5176025 C7.41369222,11.7055425 7.01258046,12.4710237 6.27179637,12.4710237 C5.68899941,12.4710237 5.38706846,12.0648131 5.3502048,11.7308178 L4.74985372,11.7308178 L4.74985372,11.7308178 Z M7.3417203,9.63928507 C7.3417203,10.2675573 6.8510825,10.7044593 6.30251609,10.7044593 C5.77501463,10.7044593 5.29842013,10.358729 5.29842013,9.62123127 C5.29842013,8.87831739 5.80924517,8.52897635 6.32358104,8.52897635 C6.8791691,8.52897635 7.3417203,8.88824698 7.3417203,9.63928507 Z" id="Shape"></path>
            <path d="M3.5,0 C3.77614237,0 4,0.223857625 4,0.5 L4,1 L12,1 L12,0.5 C12,0.223857625 12.2238576,0 12.5,0 C12.7761424,0 13,0.223857625 13,0.5 L13,1 L14,1 C15.1045695,1 16,1.8954305 16,3 L16,14 C16,15.1045695 15.1045695,16 14,16 L2,16 C0.8954305,16 0,15.1045695 0,14 L0,3 C0,1.8954305 0.8954305,1 2,1 L3,1 L3,0.5 C3,0.223857625 3.22385763,0 3.5,0 Z M1,4 L1,14 C1,14.5522847 1.44771525,15 2,15 L14,15 C14.5522847,15 15,14.5522847 15,14 L15,4 L1,4 Z" id="Shape"></path>
        </g>
    </g>
</svg>