<?xml version="1.0" encoding="UTF-8"?>
<svg width="20px" height="20px" viewBox="0 0 20 20" version="1.1" xmlns="http://www.w3.org/2000/svg" xmlns:xlink="http://www.w3.org/1999/xlink">
    <title>Icons / solid / red / delete</title>
    <g id="Icons-/-solid-/-red-/-delete" stroke="none" stroke-width="1" fill="none" fill-rule="evenodd">
        <g id="x-lg" transform="translate(3.000000, 3.000000)" fill="#E2251D" fill-rule="nonzero">
            <path d="M0.292533633,0.305312448 C0.682696288,-0.085068793 1.31514999,-0.085068793 1.70531264,0.305312448 L6.99374214,5.59830299 L12.2821716,0.305312448 C12.5330293,0.0453563279 12.9045117,-0.0588994986 13.2538392,0.0326157785 C13.6031667,0.124131056 13.8759759,0.397175528 13.9674123,0.746804335 C14.0588487,1.09643314 13.9546828,1.4682359 13.6949506,1.71930992 L8.40652115,7.01230046 L13.6949506,12.305291 C14.0735956,12.6976692 14.0681805,13.321374 13.6827797,13.7071071 C13.297379,14.0928402 12.6742117,14.09826 12.2821716,13.7192885 L6.99374214,8.42629794 L1.70531264,13.7192885 C1.31327258,14.09826 0.690105256,14.0928402 0.304704539,13.7071071 C-0.0806961788,13.321374 -0.0861113344,12.6976692 0.292533633,12.305291 L5.58096313,7.01230046 L0.292533633,1.71930992 C-0.0975112109,1.32881077 -0.0975112109,0.695811602 0.292533633,0.305312448 Z" id="Path"></path>
        </g>
    </g>
</svg>