<?xml version="1.0" encoding="UTF-8"?>
<svg width="25px" height="24px" viewBox="0 0 25 24" version="1.1" xmlns="http://www.w3.org/2000/svg" xmlns:xlink="http://www.w3.org/1999/xlink">
    <title>icons/solid/primary/gear-fill copy</title>
    <g id="Symbols" stroke="none" stroke-width="1" fill="none" fill-rule="evenodd">
        <g id="UI-/-Table-/-Striped-rows-/-Tr-/-Difetti-/-Grigio" transform="translate(-1268.000000, -16.000000)" fill="#007BFF" fill-rule="nonzero">
            <g id="Group" transform="translate(1264.000000, 12.000000)">
                <g id="pencil-square" transform="translate(4.800000, 4.800000)">
                    <path d="M23.2032,2.30462916 C23.5144407,2.61684496 23.5144407,3.12201336 23.2032,3.43422916 L21.5344,5.10462916 L18.3344,1.90462916 L20.0032,0.234229163 C20.3155999,-0.0780763877 20.8220001,-0.0780763877 21.1344,0.234229163 L23.2032,2.30302916 L23.2032,2.30462916 Z M20.4032,6.23422916 L17.2032,3.03422916 L6.3024,13.9366292 C6.21433968,14.0246706 6.14804739,14.1320532 6.1088,14.2502292 L4.8208,18.1126292 C4.77316076,18.2562351 4.8106258,18.4144306 4.91761217,18.521417 C5.02459853,18.6284034 5.18279405,18.6658684 5.3264,18.6182292 L9.1888,17.3302292 C9.3068232,17.2914467 9.41419245,17.2257105 9.5024,17.1382292 L20.4032,6.23582916 L20.4032,6.23422916 Z" id="Shape"></path>
                    <path d="M0,20.8006292 C0,22.1261126 1.0745166,23.2006292 2.4,23.2006292 L20,23.2006292 C21.3254834,23.2006292 22.4,22.1261126 22.4,20.8006292 L22.4,11.2006292 C22.4,10.7588014 22.0418278,10.4006292 21.6,10.4006292 C21.1581722,10.4006292 20.8,10.7588014 20.8,11.2006292 L20.8,20.8006292 C20.8,21.242457 20.4418278,21.6006292 20,21.6006292 L2.4,21.6006292 C1.9581722,21.6006292 1.6,21.242457 1.6,20.8006292 L1.6,3.20062916 C1.6,2.75880136 1.9581722,2.40062916 2.4,2.40062916 L12.8,2.40062916 C13.2418278,2.40062916 13.6,2.04245696 13.6,1.60062916 C13.6,1.15880136 13.2418278,0.800629163 12.8,0.800629163 L2.4,0.800629163 C1.0745166,0.800629163 0,1.87514576 0,3.20062916 L0,20.8006292 Z" id="Path"></path>
                </g>
            </g>
        </g>
    </g>
</svg>