<?xml version="1.0" encoding="UTF-8"?>
<svg width="18px" height="14px" viewBox="0 0 18 14" version="1.1" xmlns="http://www.w3.org/2000/svg" xmlns:xlink="http://www.w3.org/1999/xlink">
    <title>eye-fill</title>
    <g id="Symbols" stroke="none" stroke-width="1" fill="none" fill-rule="evenodd">
        <g id="Icons-/-solid-/-primary-/-eye-fill" transform="translate(-1.000000, -3.000000)" fill="#007BFF">
            <g id="eye-fill" transform="translate(1.000000, 3.312500)">
                <path d="M11,6.5 C11,7.6045695 10.1045695,8.5 9,8.5 C7.8954305,8.5 7,7.6045695 7,6.5 C7,5.3954305 7.8954305,4.5 9,4.5 C10.1045695,4.5 11,5.3954305 11,6.5 Z" id="Path"></path>
                <path d="M0,6.5 C0,6.5 3.375,0 9,0 C14.625,0 18,6.5 18,6.5 C18,6.5 14.625,13 9,13 C3.375,13 0,6.5 0,6.5 Z M9,10.6363636 C11.1746212,10.6363636 12.9375,8.78445056 12.9375,6.5 C12.9375,4.21554944 11.1746212,2.36363636 9,2.36363636 C6.8253788,2.36363636 5.0625,4.21554944 5.0625,6.5 C5.0625,8.78445056 6.8253788,10.6363636 9,10.6363636 Z" id="Shape"></path>
            </g>
        </g>
    </g>
</svg>