<?xml version="1.0" encoding="UTF-8"?>
<svg width="12px" height="9px" viewBox="0 0 12 9" version="1.1" xmlns="http://www.w3.org/2000/svg" xmlns:xlink="http://www.w3.org/1999/xlink">
    <title>eye-fill</title>
    <g id="Symbols" stroke="none" stroke-width="1" fill="none" fill-rule="evenodd">
        <g id="Icons-/-solid-/-primary-/-eye-fill" transform="translate(-4.000000, -6.000000)" fill="#007BFF">
            <g id="eye-fill" transform="translate(4.000000, 6.000000)">
                <path d="M7.875,4.125 C7.875,5.16053391 7.03553391,6 6,6 C4.96446609,6 4.125,5.16053391 4.125,4.125 C4.125,3.08946609 4.96446609,2.25 6,2.25 C7.03553391,2.25 7.875,3.08946609 7.875,4.125 Z" id="Path"></path>
                <path d="M0,4.125 C0,4.125 2.25,0 6,0 C9.75,0 12,4.125 12,4.125 C12,4.125 9.75,8.25 6,8.25 C2.25,8.25 0,4.125 0,4.125 Z M6,6.75 C7.44974747,6.75 8.625,5.57474747 8.625,4.125 C8.625,2.67525253 7.44974747,1.5 6,1.5 C4.55025253,1.5 3.375,2.67525253 3.375,4.125 C3.375,5.57474747 4.55025253,6.75 6,6.75 Z" id="Shape"></path>
            </g>
        </g>
    </g>
</svg>