<?xml version="1.0" encoding="UTF-8"?>
<svg width="16px" height="16px" viewBox="0 0 16 16" version="1.1" xmlns="http://www.w3.org/2000/svg" xmlns:xlink="http://www.w3.org/1999/xlink">
    <title>icons/solid/primary/gear-fill</title>
    <g id="Symbols" stroke="none" stroke-width="1" fill="none" fill-rule="evenodd">
        <g id="UI-/-Table-/-Striped-rows-/-Tr-/-Anagrafica-Attivita-/-Grigio" transform="translate(-1352.000000, -19.000000)" fill="#FFFFFF" fill-rule="nonzero">
            <g id="Group" transform="translate(1350.000000, 17.000000)">
                <g id="gear-fill" transform="translate(2.000000, 2.000000)">
                    <path d="M9.405,1.05 C8.992,-0.35 7.008,-0.35 6.595,1.05 L6.495,1.39 C6.37001802,1.81450781 6.05972835,2.15970406 5.65089514,2.32906394 C5.24206192,2.49842383 4.77856177,2.47377139 4.39,2.262 L4.08,2.092 C2.797,1.394 1.394,2.797 2.093,4.079 L2.262,4.39 C2.708,5.21 2.285,6.231 1.39,6.495 L1.05,6.595 C-0.35,7.008 -0.35,8.992 1.05,9.405 L1.39,9.505 C1.81450781,9.62998198 2.15970406,9.94027165 2.32906394,10.3491049 C2.49842383,10.7579381 2.47377139,11.2214382 2.262,11.61 L2.092,11.92 C1.394,13.203 2.797,14.606 4.079,13.907 L4.39,13.738 C4.77856177,13.5262286 5.24206192,13.5015762 5.65089514,13.6709361 C6.05972835,13.8402959 6.37001802,14.1854922 6.495,14.61 L6.595,14.95 C7.008,16.35 8.992,16.35 9.405,14.95 L9.505,14.61 C9.62998198,14.1854922 9.94027165,13.8402959 10.3491049,13.6709361 C10.7579381,13.5015762 11.2214382,13.5262286 11.61,13.738 L11.92,13.908 C13.203,14.606 14.606,13.203 13.907,11.921 L13.738,11.61 C13.5262286,11.2214382 13.5015762,10.7579381 13.6709361,10.3491049 C13.8402959,9.94027165 14.1854922,9.62998198 14.61,9.505 L14.95,9.405 C16.35,8.992 16.35,7.008 14.95,6.595 L14.61,6.495 C14.1854922,6.37001802 13.8402959,6.05972835 13.6709361,5.65089514 C13.5015762,5.24206192 13.5262286,4.77856177 13.738,4.39 L13.908,4.08 C14.606,2.797 13.203,1.394 11.921,2.093 L11.61,2.262 C11.2214382,2.47377139 10.7579381,2.49842383 10.3491049,2.32906394 C9.94027165,2.15970406 9.62998198,1.81450781 9.505,1.39 L9.405,1.05 L9.405,1.05 Z M8,10.93 C6.38180568,10.93 5.07,9.61819432 5.07,8 C5.07,6.38180568 6.38180568,5.07 8,5.07 C9.61764202,5.07 10.929,6.38135798 10.929,7.999 C10.929,9.61664202 9.61764202,10.928 8,10.928 L8,10.93 Z" id="Shape"></path>
                </g>
            </g>
        </g>
    </g>
</svg>