<?xml version="1.0" encoding="UTF-8"?>
<svg width="20px" height="20px" viewBox="0 0 20 20" version="1.1" xmlns="http://www.w3.org/2000/svg" xmlns:xlink="http://www.w3.org/1999/xlink">
    <title>Icons / solid / primary / key fill@2x</title>
    <g id="Icons-/-solid-/-primary-/-key-fill" stroke="none" stroke-width="1" fill="none" fill-rule="evenodd">
        <g id="key-fill" transform="translate(2.000000, 7.000000)" fill="#007BFF">
            <path d="M3.61256423,7 C1.82251834,6.99964198 0.302613422,5.72970399 0.039539011,4.01460228 C-0.2235354,2.29950057 0.849543814,0.656378588 2.56215674,0.151915744 C4.27476966,-0.352547099 6.11052326,0.433756591 6.87768584,2.00037539 L14.4515705,2.00037539 L16,3.50026273 L14.4515705,5.00015007 L13.4192842,4.00022518 L12.3869979,5.00015007 L11.3547116,4.00022518 L10.3224253,5.00015007 L9.29013896,4.00022518 L8.25785265,5.00015007 L6.87768584,5.00015007 C6.27948464,6.22173386 5.00836708,7.00027888 3.61256423,7 Z M2.58027792,4.50018762 C3.15039391,4.50018762 3.61256423,4.052506 3.61256423,3.50026273 C3.61256423,2.94801946 3.15039391,2.50033784 2.58027792,2.50033784 C2.01016193,2.50033784 1.5479916,2.94801946 1.5479916,3.50026273 C1.5479916,4.052506 2.01016193,4.50018762 2.58027792,4.50018762 Z" id="Shape"></path>
        </g>
    </g>
</svg>