<?xml version="1.0" encoding="UTF-8"?>
<svg width="135px" height="149px" viewBox="0 0 135 149" version="1.1" xmlns="http://www.w3.org/2000/svg" xmlns:xlink="http://www.w3.org/1999/xlink">
    <title>:-(</title>
    <g id="DIREZIONE---DS" stroke="none" stroke-width="1" fill="none" fill-rule="evenodd" fill-opacity="0.2">
        <g id="Direzione-&gt;--Inserimento-nuovo-listino" transform="translate(-676.000000, -568.000000)" fill="#868E96" fill-rule="nonzero">
            <path d="M679.689767,620.900763 C683.421047,620.900763 686.313969,619.876001 688.368534,617.826476 C690.423099,615.77695 691.450382,612.893316 691.450382,609.175573 C691.450382,605.410166 690.458523,602.514616 688.474805,600.488922 C686.491086,598.463228 683.562741,597.450382 679.689767,597.450382 C675.816794,597.450382 672.900256,598.475144 670.940154,600.52467 C668.980051,602.574195 668,605.457829 668,609.175573 C668,612.845653 668.991859,615.717371 670.975577,617.790728 C672.959295,619.864085 675.864025,620.900763 679.689767,620.900763 Z M679.689767,681.480916 C683.421047,681.480916 686.313969,680.456153 688.368534,678.406628 C690.423099,676.357103 691.450382,673.473469 691.450382,669.755725 C691.450382,665.990318 690.458523,663.094768 688.474805,661.069075 C686.491086,659.043381 683.562741,658.030534 679.689767,658.030534 C675.816794,658.030534 672.900256,659.055297 670.940154,661.104822 C668.980051,663.154347 668,666.037982 668,669.755725 C668,673.425805 668.991859,676.297524 670.975577,678.370881 C672.959295,680.444238 675.864025,681.480916 679.689767,681.480916 Z M744.21374,648.259542 L744.21374,631.648855 L708.061069,631.648855 L708.061069,648.259542 L744.21374,648.259542 Z M795.854164,702.977099 C789.437393,694.311225 784.406061,684.441756 780.760169,673.368695 C777.114276,662.295633 775.29133,650.813349 775.29133,638.921843 C775.29133,627.174769 777.041358,615.740629 780.541415,604.619423 C784.041472,593.498218 789.194334,583.291743 796,574 L796,574 L778.864304,574 C771.766967,582.377012 766.334587,592.126121 762.567164,603.247327 C758.799742,614.368532 756.916031,626.308182 756.916031,639.066275 C756.916031,651.631793 758.787589,663.378867 762.530705,674.307498 C766.273822,685.236128 771.718355,694.792662 778.864304,702.977099 L778.864304,702.977099 L795.854164,702.977099 Z" id=":-(" transform="translate(732.000000, 638.488550) rotate(-285.000000) translate(-732.000000, -638.488550) "></path>
        </g>
    </g>
</svg>