<?xml version="1.0" encoding="UTF-8"?>
<svg width="16px" height="16px" viewBox="0 0 16 16" version="1.1" xmlns="http://www.w3.org/2000/svg" xmlns:xlink="http://www.w3.org/1999/xlink">
    <title>Icons / solid / primary / search</title>
    <g id="DIREZIONE---DS" stroke="none" stroke-width="1" fill="none" fill-rule="evenodd">
        <g id="SP-&gt;-Gestione-Rapporti" transform="translate(-1386.000000, -198.000000)" fill="#007BFF" fill-rule="nonzero">
            <g id="Group" transform="translate(1384.000000, 196.000000)">
                <g id="search" transform="translate(2.000000, 2.000000)">
                    <path d="M11.7429175,10.3421677 C13.7512594,7.60163387 13.3101327,3.77672172 10.7306819,1.56529753 C8.15123116,-0.646126655 4.30382056,-0.497879091 1.90218542,1.90547518 C-0.49944972,4.30882946 -0.64494418,8.15634516 1.5683252,10.7342128 C3.78159459,13.3120805 7.60682141,13.7504702 10.3459175,11.7401677 L10.3449175,11.7401677 C10.3749175,11.7801677 10.4069175,11.8181677 10.4429175,11.8551677 L14.2929175,15.7051677 C14.6833828,16.0959092 15.316676,16.096133 15.7074174,15.7056677 C16.0981589,15.3152024 16.0983828,14.6819092 15.7079175,14.2911677 L11.8579175,10.4411677 C11.8221651,10.4049774 11.7837217,10.3715484 11.7429175,10.3411677 L11.7429175,10.3421677 Z M12.0009175,6.49816781 C12.0009175,8.46312849 10.9526234,10.2788271 9.25091749,11.2613075 C7.54921155,12.2437879 5.45262338,12.2437879 3.75091744,11.2613075 C2.04921151,10.2788271 1.00091746,8.46312849 1.00091746,6.49816781 C1.00091746,3.46060163 3.46335137,0.998167805 6.50091746,0.998167805 C9.53848356,0.998167805 12.0009175,3.46060163 12.0009175,6.49816781 Z" id="Shape"></path>
                </g>
            </g>
        </g>
    </g>
</svg>