<?xml version="1.0" encoding="UTF-8"?>
<svg width="20px" height="14px" viewBox="0 0 20 14" version="1.1" xmlns="http://www.w3.org/2000/svg" xmlns:xlink="http://www.w3.org/1999/xlink">
    <title>icons/solid/primary/gear-fill</title>
    <g id="Symbols" stroke="none" stroke-width="1" fill="none" fill-rule="evenodd">
        <g id="UI-/-Table-/-Striped-rows-/-Tr-/-Gestione-Attivita-/-Grigio" transform="translate(-1351.000000, -21.000000)" fill="#007BFF">
            <g id="Group" transform="translate(1345.000000, 12.000000)">
                <g id="eye-fill" transform="translate(6.400000, 9.600000)">
                    <path d="M12.6,6.6 C12.6,8.25685425 11.2568542,9.6 9.6,9.6 C7.94314575,9.6 6.6,8.25685425 6.6,6.6 C6.6,4.94314575 7.94314575,3.6 9.6,3.6 C11.2568542,3.6 12.6,4.94314575 12.6,6.6 Z" id="Path"></path>
                    <path d="M0,6.6 C0,6.6 3.6,0 9.6,0 C15.6,0 19.2,6.6 19.2,6.6 C19.2,6.6 15.6,13.2 9.6,13.2 C3.6,13.2 0,6.6 0,6.6 Z M9.6,10.8 C11.9195959,10.8 13.8,8.91959595 13.8,6.6 C13.8,4.28040405 11.9195959,2.4 9.6,2.4 C7.28040405,2.4 5.4,4.28040405 5.4,6.6 C5.4,8.91959595 7.28040405,10.8 9.6,10.8 Z" id="Shape"></path>
                </g>
            </g>
        </g>
    </g>
</svg>