<?xml version="1.0" encoding="UTF-8"?>
<svg width="200px" height="64px" viewBox="0 0 200 64" version="1.1" xmlns="http://www.w3.org/2000/svg" xmlns:xlink="http://www.w3.org/1999/xlink">
    <title>Rectangle</title>
    <defs>
        <filter color-interpolation-filters="auto" id="filter-1">
            <feColorMatrix in="SourceGraphic" type="matrix" values="0 0 0 0 0.965938 0 0 0 0 0.965938 0 0 0 0 0.965938 0 0 0 1.000000 0"></feColorMatrix>
        </filter>
    </defs>
    <g id="DIREZIONE---DS" stroke="none" stroke-width="1" fill="none" fill-rule="evenodd">
        <g id="Direzione-&gt;-Dettaglio-Menu-&gt;-DR" transform="translate(-20.000000, 0.000000)">
            <g id="Group">
                <rect id="Rectangle" fill="#007BFF" x="260" y="0" width="1180" height="64"></rect>
                <circle id="Oval" fill="#F4F4F4" cx="1396" cy="33" r="24"></circle>
                <text id="Ciao-Armando" font-family="Ubuntu-Regular, Ubuntu" font-size="14" font-weight="normal" line-spacing="21" letter-spacing="0.194444444" fill="#FFFFFF">
                    <tspan x="1255.38067" y="27">Ciao Armando</tspan>
                </text>
                <text id="direzione" font-family="Ubuntu-Regular, Ubuntu" font-size="10" font-weight="normal" line-spacing="21" letter-spacing="0.138888889" fill="#000000">
                    <tspan x="1304.05" y="40">direzione</tspan>
                </text>
                <text id="AG" font-family="Ubuntu-Bold, Ubuntu" font-size="16" font-weight="bold" line-spacing="16" letter-spacing="0.222222222" fill="#007BFF">
                    <tspan x="1384.5" y="44">AG</tspan>
                </text>
                <rect id="Rectangle" fill="#FFFFFF" x="1180" y="12" width="2" height="40"></rect>
                <text id="ITA" font-family="Ubuntu-Regular, Ubuntu" font-size="14" font-weight="normal" line-spacing="21" letter-spacing="0.194444444" fill="#FFFFFF">
                    <tspan x="1111.18667" y="36">ITA</tspan>
                </text>
                <g id="icons/solid/caret-down-fill" transform="translate(1151.000000, 29.000000)" fill="#FFFFFF" fill-rule="nonzero">
                    <g id="caret-down-fill" transform="translate(0.200000, 0.800000)">
                        <path d="M4.1976,5.712 L0.3608,1.3264 C-0.092,0.8104 0.276,-2.95919176e-07 0.9632,-2.95919176e-07 L8.6368,-2.95919176e-07 C8.95092106,-0.000269322314 9.23613107,0.183318193 9.36595943,0.469354398 C9.4957878,0.755390602 9.44620597,1.09093607 9.2392,1.3272 L5.4024,5.7112 C5.25048308,5.88504479 5.03086958,5.98478359 4.8,5.98478359 C4.56913042,5.98478359 4.34951692,5.88504479 4.1976,5.7112 L4.1976,5.712 Z" id="Path"></path>
                    </g>
                </g>
                <g id="logo_fondital" transform="translate(46.000000, 15.136364)">
                    <path d="M79.4522968,31.0629371 L79.9187279,31.0629371 C80.0812721,31.0629371 80.2261484,31.0664336 80.3674912,31.048951 C80.5017668,31.0314685 80.6254417,30.9895105 80.7561837,30.8986014 C81.0106007,30.7167832 81.0918728,30.4965035 81.0918728,30.1783217 C81.0918728,29.8811189 80.975265,29.5979021 80.7208481,29.4405594 C80.4946996,29.3006993 80.2120141,29.2972028 79.9187279,29.2972028 L79.4522968,29.2972028 L79.4522968,31.0629371 L79.4522968,31.0629371 Z M79.0706714,33.8601399 C79.0318021,33.8601399 79,33.8251748 79,33.7902098 L79,28.9335664 C79,28.8951049 79.0353357,28.8636364 79.0706714,28.8636364 L80.0530035,28.8636364 C80.4240283,28.8636364 80.8021201,28.8881119 81.1166078,29.1643357 C81.4381625,29.4405594 81.5512367,29.8216783 81.5512367,30.2237762 C81.5512367,30.6363636 81.4063604,30.958042 81.0883392,31.1888112 C81.6360424,31.3671329 82,31.8426573 82,32.4405594 C82,32.8531469 81.8409894,33.2272727 81.5194346,33.5 C81.155477,33.8076923 80.770318,33.8636364 80.3286219,33.8636364 L79.0706714,33.8636364 L79.0706714,33.8601399 Z M79.4522968,33.4265734 L80.1272085,33.4265734 C80.2968198,33.4265734 80.4699647,33.4300699 80.6360424,33.4090909 C80.7985866,33.3881119 80.95053,33.3426573 81.0883392,33.2517483 C81.3710247,33.0629371 81.5371025,32.7832168 81.5371025,32.4475524 C81.5371025,32.1153846 81.3710247,31.7867133 81.0706714,31.6433566 C80.7879859,31.5034965 80.3957597,31.4965035 80.0671378,31.4965035 L79.4487633,31.4965035 L79.4487633,33.4265734 L79.4522968,33.4265734 Z" id="Shape" fill="#000000" fill-rule="nonzero"></path>
                    <path d="M83.3669986,29.2943086 L83.3669986,30.9189585 L84.9032717,30.9189585 C84.9345661,30.9189585 84.9601707,30.9539725 84.9601707,30.9889865 L84.9601707,31.2796028 C84.9601707,31.3181182 84.9317212,31.3496308 84.9032717,31.3496308 L83.3669986,31.3496308 L83.3669986,33.4329641 L84.943101,33.4329641 C84.9743954,33.4329641 85,33.4679781 85,33.5029921 L85,33.7936084 C85,33.8321238 84.9715505,33.8636364 84.943101,33.8636364 L83.056899,33.8636364 C83.0256046,33.8636364 83,33.8286224 83,33.7936084 L83,28.9336644 C83,28.895149 83.0284495,28.8636364 83.056899,28.8636364 L84.943101,28.8636364 C84.9743954,28.8636364 85,28.8986504 85,28.9336644 L85,29.2242806 C85,29.262796 84.9715505,29.2943086 84.943101,29.2943086 L83.3669986,29.2943086 Z" id="Path" fill="#000000" fill-rule="nonzero"></path>
                    <path d="M88.2036364,33.7936084 C88.2036364,33.8321238 88.1718182,33.8636364 88.14,33.8636364 L87.86,33.8636364 C87.825,33.8636364 87.7963636,33.8286224 87.7963636,33.7936084 L87.7963636,28.9336644 C87.7963636,28.895149 87.8281818,28.8636364 87.86,28.8636364 L88.14,28.8636364 C88.175,28.8636364 88.2036364,28.8986504 88.2036364,28.9336644 L88.2036364,33.7936084 Z" id="Path" fill="#000000" fill-rule="nonzero"></path>
                    <path d="M93,33.7865641 C93,33.8632707 92.9412674,33.8899513 92.8918083,33.8332551 L89.3956723,29.8245019 L89.3956723,33.633151 C89.3956723,33.6698367 89.3647604,33.6998523 89.3338485,33.6998523 L89.0618238,33.6998523 C89.0278207,33.6998523 89,33.6665016 89,33.633151 L89,28.9407086 C89,28.864002 89.0587326,28.8373214 89.1081917,28.8940176 L92.6043277,32.8727552 L92.6043277,29.0040749 C92.6043277,28.9673891 92.6352396,28.9373735 92.6661515,28.9373735 L92.9381762,28.9373735 C92.9721793,28.9373735 93,28.9707242 93,29.0040749 L93,33.7865641 Z" id="Path" fill="#000000" fill-rule="nonzero"></path>
                    <path d="M99,33.7865641 C99,33.8632707 98.9412674,33.8899513 98.8918083,33.8332551 L95.3956723,29.8245019 L95.3956723,33.633151 C95.3956723,33.6698367 95.3647604,33.6998523 95.3338485,33.6998523 L95.0618238,33.6998523 C95.0278207,33.6998523 95,33.6665016 95,33.633151 L95,28.9407086 C95,28.864002 95.0587326,28.8373214 95.1081917,28.8940176 L98.6043277,32.8727552 L98.6043277,29.0040749 C98.6043277,28.9673891 98.6352396,28.9373735 98.6661515,28.9373735 L98.9381762,28.9373735 C98.9721793,28.9373735 99,28.9707242 99,29.0040749 L99,33.7865641 Z" id="Path" fill="#000000" fill-rule="nonzero"></path>
                    <path d="M99.4385965,31.3636364 C99.4385965,32.4925586 100.369771,33.4441275 101.5,33.4441275 C102.623482,33.4441275 103.561404,32.489148 103.561404,31.3636364 C103.561404,30.2347141 102.623482,29.2831452 101.5,29.2831452 C100.369771,29.2865559 99.4385965,30.2347141 99.4385965,31.3636364 M104,31.3636364 C104,32.7347141 102.856275,33.8636364 101.5,33.8636364 C100.147099,33.8636364 99,32.7347141 99,31.3636364 C99,29.9925586 100.136977,28.8636364 101.5,28.8636364 C102.856275,28.8636364 104,29.9925586 104,31.3636364" id="Shape" fill="#000000" fill-rule="nonzero"></path>
                    <path d="M106.50518,32.7507413 L107.633033,28.9109576 C107.638772,28.8906771 107.670341,28.8636364 107.68756,28.8636364 L107.940107,28.8636364 C107.986025,28.8636364 108.011853,28.9041975 107.994634,28.9548988 L106.545358,33.8053298 C106.5224,33.8830719 106.456393,33.8830719 106.436304,33.8053298 L105.004247,28.9548988 C104.989898,28.9041975 105.012857,28.8636364 105.058775,28.8636364 L105.311322,28.8636364 C105.328541,28.8636364 105.360109,28.8906771 105.365849,28.9109576 L106.50518,32.7507413 Z" id="Path" fill="#000000" fill-rule="nonzero"></path>
                    <path d="M109.003322,29.887305 L108.19931,31.9025206 L109.804012,31.9025206 L109.003322,29.887305 Z M108.033192,32.3184124 L107.431844,33.8196803 C107.425199,33.8365865 107.388653,33.8636364 107.368719,33.8636364 L107.069706,33.8636364 C107.013226,33.8636364 106.986647,33.8230616 107.006581,33.7689618 L108.940197,28.9168908 C108.970099,28.8458849 109.036546,28.8458849 109.066447,28.9168908 L110.993419,33.7689618 C111.013353,33.8230616 110.986774,33.8636364 110.930294,33.8636364 L110.631281,33.8636364 C110.611347,33.8636364 110.574801,33.8399677 110.568156,33.8196803 L109.966808,32.3184124 L108.033192,32.3184124 Z" id="Shape" fill="#000000" fill-rule="nonzero"></path>
                    <path d="M112.724911,33.7936084 C112.724911,33.8321238 112.689492,33.8636364 112.654073,33.8636364 L112.342385,33.8636364 C112.303424,33.8636364 112.271547,33.8286224 112.271547,33.7936084 L112.271547,29.2943086 L111.070838,29.2943086 C111.031877,29.2943086 111,29.2592946 111,29.2242806 L111,28.9336644 C111,28.895149 111.035419,28.8636364 111.070838,28.8636364 L113.929162,28.8636364 C113.968123,28.8636364 114,28.8986504 114,28.9336644 L114,29.2242806 C114,29.262796 113.964581,29.2943086 113.929162,29.2943086 L112.728453,29.2943086 L112.728453,33.7936084 L112.724911,33.7936084 Z" id="Path" fill="#000000" fill-rule="nonzero"></path>
                    <path d="M114.203636,33.7936084 C114.203636,33.8321238 114.171818,33.8636364 114.14,33.8636364 L113.86,33.8636364 C113.825,33.8636364 113.796364,33.8286224 113.796364,33.7936084 L113.796364,28.9336644 C113.796364,28.895149 113.828182,28.8636364 113.86,28.8636364 L114.14,28.8636364 C114.175,28.8636364 114.203636,28.8986504 114.203636,28.9336644 L114.203636,33.7936084 Z" id="Path" fill="#000000" fill-rule="nonzero"></path>
                    <path d="M116.50518,32.7507413 L117.633033,28.9109576 C117.638772,28.8906771 117.670341,28.8636364 117.68756,28.8636364 L117.940107,28.8636364 C117.986025,28.8636364 118.011853,28.9041975 117.994634,28.9548988 L116.545358,33.8053298 C116.5224,33.8830719 116.456393,33.8830719 116.436304,33.8053298 L115.004247,28.9548988 C114.989898,28.9041975 115.012857,28.8636364 115.058775,28.8636364 L115.311322,28.8636364 C115.328541,28.8636364 115.360109,28.8906771 115.365849,28.9109576 L116.50518,32.7507413 Z" id="Path" fill="#000000" fill-rule="nonzero"></path>
                    <path d="M119.366999,29.2943086 L119.366999,30.9189585 L120.903272,30.9189585 C120.934566,30.9189585 120.960171,30.9539725 120.960171,30.9889865 L120.960171,31.2796028 C120.960171,31.3181182 120.931721,31.3496308 120.903272,31.3496308 L119.366999,31.3496308 L119.366999,33.4329641 L120.943101,33.4329641 C120.974395,33.4329641 121,33.4679781 121,33.5029921 L121,33.7936084 C121,33.8321238 120.97155,33.8636364 120.943101,33.8636364 L119.056899,33.8636364 C119.025605,33.8636364 119,33.8286224 119,33.7936084 L119,28.9336644 C119,28.895149 119.02845,28.8636364 119.056899,28.8636364 L120.943101,28.8636364 C120.974395,28.8636364 121,28.8986504 121,28.9336644 L121,29.2242806 C121,29.262796 120.97155,29.2943086 120.943101,29.2943086 L119.366999,29.2943086 Z" id="Path" fill="#000000" fill-rule="nonzero"></path>
                    <path d="M126,31.3636364 C126,29.9819719 127.118336,28.8636364 128.5,28.8636364 C129.881664,28.8636364 131,29.9819719 131,31.3636364 C131,32.7453009 129.881664,33.8636364 128.5,33.8636364 C127.118336,33.8636364 126,32.7453009 126,31.3636364" id="Path" fill="#4C8B32" fill-rule="nonzero"></path>
                    <circle id="Oval" stroke="#000000" stroke-width="0.8" cx="128.5" cy="31.3636364" r="2.5"></circle>
                    <path d="M134,31.3636364 C134,29.9819719 135.118336,28.8636364 136.5,28.8636364 C137.881664,28.8636364 139,29.9819719 139,31.3636364 C139,32.7453009 137.881664,33.8636364 136.5,33.8636364 C135.121586,33.8636364 134,32.7453009 134,31.3636364" id="Path" fill="#FFFFFF" fill-rule="nonzero"></path>
                    <path d="M134,31.3636364 C134,29.9819719 135.118336,28.8636364 136.5,28.8636364 C137.881664,28.8636364 139,29.9819719 139,31.3636364 C139,32.7453009 137.881664,33.8636364 136.5,33.8636364 C135.121586,33.8636364 134,32.7453009 134,31.3636364 Z" id="Path" stroke="#000000" stroke-width="0.7"></path>
                    <path d="M142,31.3636364 C142,29.9819719 143.118336,28.8636364 144.5,28.8636364 C145.881664,28.8636364 147,29.9819719 147,31.3636364 C147,32.7453009 145.881664,33.8636364 144.5,33.8636364 C143.118336,33.8636364 142,32.7453009 142,31.3636364" id="Path" fill="#E2251D" fill-rule="nonzero"></path>
                    <circle id="Oval" stroke="#000000" stroke-width="0.8" cx="144.5" cy="31.3636364" r="2.5"></circle>
                    <path d="M52.3281361,21.0526662 C52.3281361,22.3873098 51.2406095,23.4678886 49.8979447,23.4678886 C48.5552799,23.4678886 47.4677534,22.3873098 47.4677534,21.0526662 L47.4677534,10.7099826 C47.4677534,9.37533906 48.5552799,8.29476018 49.8979447,8.29476018 C51.2406095,8.29476018 52.3281361,9.37533906 52.3281361,10.7099826 L52.3281361,21.0526662 Z M59,15.8620284 C59,10.8900791 54.9720057,6.86363636 50,6.86363636 C45.0279943,6.86363636 41,10.8932951 41,15.8620284 C41,20.8307616 45.0311836,24.8636364 50,24.8636364 C54.9688164,24.8636364 59,20.8339776 59,15.8620284" id="Shape" fill="#E2251D" fill-rule="nonzero"></path>
                    <path d="M88.4890101,20.2946802 C88.4890101,21.4498992 87.5404669,22.3877034 86.3685466,22.3877034 C85.1966263,22.3877034 84.2480831,21.4498992 84.2480831,20.2946802 L84.2480831,11.8836472 C84.2480831,10.7251831 85.1966263,9.79062392 86.3685466,9.79062392 C87.5404669,9.79062392 88.4890101,10.7284281 88.4890101,11.8836472 L88.4890101,20.2946802 Z M88.3854149,24.4158267 L97,24.4158267 L97,23.4196126 L96.7928097,23.4196126 C95.9672857,23.4196126 95.3003919,22.7576331 95.3003919,21.9431388 L95.3003919,0.863636364 L86.1645936,4.22869856 C86.9447947,4.77385811 87.3397512,5.21193274 87.7962174,6.04914204 C88.3854149,7.12323615 88.4372125,9.12215448 88.4372125,9.12215448 C87.3462259,8.03183539 85.9962515,7.38608093 84.5297325,7.38608093 C80.9233259,7.38608093 78,11.2995477 78,16.1248586 C78,20.9501696 80.5769296,24.8636364 84.1833362,24.8636364 C85.6563299,24.8636364 87.2944284,24.110797 88.3854149,23.0107429 L88.3854149,24.4158267 L88.3854149,24.4158267 Z" id="Shape" fill="#E2251D" fill-rule="nonzero"></path>
                    <path d="M127.780724,15.3001575 L127.777499,21.5494665 C127.451809,21.8501851 127.02938,21.9817495 126.513436,21.9817495 C125.529918,21.9817495 124.730204,21.2926026 124.730204,20.4405665 C124.72053,20.2933397 124.730204,20.0928606 124.730204,19.9425013 C124.733429,17.5806071 126.116804,15.6823207 127.780724,15.3001575 M137,22.9152302 C136.806521,22.9998074 136.525976,23.074987 136.297026,23.074987 C135.445718,23.074987 134.636331,22.3983701 134.636331,21.5839238 L134.636331,12.2867062 C134.636331,9.84336734 131.305267,7.86363636 127.197062,7.86363636 C123.088857,7.86363636 119.757793,9.84336734 119.757793,12.2867062 L119.757793,12.4182706 C119.757793,13.6368075 120.789681,14.6235405 122.060193,14.6235405 C123.330706,14.6235405 124.362594,13.6368075 124.362594,12.4182706 L124.362594,11.6069568 C124.362594,10.1597484 125.236474,8.98819874 126.316732,8.98819874 C127.39699,8.98819874 128.270871,10.1597484 128.270871,11.6069568 L128.270871,13.6963248 C126.47474,14.1724626 125.478323,14.5577583 123.843425,15.4191919 C122.434253,16.161591 121.67646,16.6439938 120.441419,17.6589192 C119.557865,18.4138483 119,19.5133508 119,20.7381527 C119,23.0154698 120.928341,24.8636364 123.308133,24.8636364 C125.700824,24.7352044 127.667861,23.8017237 128.409531,22.5612594 L128.445002,22.6082466 C129.025439,23.8956983 130.757076,24.829179 132.804729,24.829179 C134.684701,24.829179 136.300251,24.0397926 137,22.9152302" id="Shape" fill="#E2251D" fill-rule="nonzero"></path>
                    <path d="M30,9.95132743 L32.0052798,9.95132743 L32.0052798,22.498391 C32.0052798,23.2771521 31.3558606,23.9111022 30.5765576,23.9111022 L30.5765576,24.8636364 L40.5364308,24.8636364 L40.5364308,23.9111022 L40.0105597,23.9111022 C39.2312566,23.9111022 38.6008448,23.2771521 38.6008448,22.498391 L38.6008448,9.95132743 L41.3189018,9.95132743 L41.3189018,8.52252615 L38.4963041,8.52252615 C37.9419219,7.90788415 37.6663147,7.51850362 37.2734952,6.78479485 C37.0232313,6.32139984 36.7254488,5.54907482 36.7254488,5.54907482 C36.6462513,5.3463395 36.6019007,5.12751408 36.6019007,4.89581657 C36.6019007,3.90788415 37.4002112,3.10659694 38.3854277,3.10659694 C39.2122492,3.10659694 39.906019,3.6697506 40.1087645,4.43242156 C40.3146779,5.57160097 41.3664203,6.43081255 42.563886,6.43081255 C43.907075,6.43081255 45,5.33990346 45,3.9915527 C45,3.01971038 44.3093981,2.29243765 43.6378036,1.80973451 C42.87434,1.21440064 41.9144667,0.863636364 40.8722281,0.863636364 C40.2101373,0.863636364 39.5733897,0.979485117 39.0063358,1.23692679 C39.0063358,1.23692679 36.7983105,2.15728077 34.8595565,3.95937249 C32.6958817,5.97385358 30,9.95132743 30,9.95132743" id="Path" fill="#E2251D" fill-rule="nonzero"></path>
                    <path d="M77.7894737,13.6591635 C77.7894737,10.4962242 75.1901775,7.93072902 71.9804162,7.93072902 C70.1779376,7.93072902 68.5682375,8.73903572 67.50153,10.0106012 L67.5143819,7.86363636 L59,11.6943073 C60.2048654,12.0553297 60.9663403,12.9403137 60.9663403,14.301336 L60.9663403,22.4642753 C60.9663403,23.2661923 60.3012546,23.9179495 59.4851591,23.9179495 L59.3116585,23.9179495 L59.3116585,24.8636364 L69.5514076,24.8636364 L69.5514076,23.9179495 L69.0694614,23.9179495 C68.250153,23.9179495 67.4854651,23.2661923 67.4854651,22.4642753 L67.4854651,12.8636364 C67.4854651,11.8189079 68.3497552,11.0393552 69.4164627,11.0393552 C70.4831701,11.0393552 71.3474602,11.8860006 71.3474602,12.930729 L71.3474602,24.8636364 L80,24.8636364 L80,23.9179495 L79.4152387,23.9179495 C78.5959302,23.9179495 77.7958996,23.2342434 77.7958996,22.4291316 L77.7958996,13.6591635 L77.7894737,13.6591635 Z" id="Path" fill="#E2251D" fill-rule="nonzero"></path>
                    <path d="M99,3.86363636 C99,2.20741796 100.342971,0.863636364 102,0.863636364 C103.657029,0.863636364 105,2.20741796 105,3.86363636 C105,5.51985477 103.657029,6.86363636 102,6.86363636 C100.342971,6.86363636 99,5.52288813 99,3.86363636" id="Path" fill="#E2251D" fill-rule="nonzero"></path>
                    <path d="M98,11.685784 C99.0672189,11.685784 99.9655941,12.9027863 99.9655941,14.4018541 L99.9655941,22.4486475 C99.9655941,23.244136 99.3061485,23.8906684 98.4969736,23.8906684 L98.4969736,24.8636364 L108,24.8636364 L108,23.8906684 C107.187639,23.8906684 106.531379,23.244136 106.531379,22.4486475 L106.531379,7.86363636 L98.0541574,11.6192292 L98,11.685784 Z" id="Path" fill="#E2251D" fill-rule="nonzero"></path>
                    <path d="M115.291722,19.9946268 C115.291722,21.1703456 116.6428,22.1256172 118.306894,22.1256172 C118.543253,22.1256172 118.779611,22.1511763 119,22.1128376 C118.076923,23.7518153 116.301038,24.8636364 114.263242,24.8636364 C111.273623,24.8636364 108.849348,22.47386 108.849348,19.5217833 L108.849348,9.0425501 L107,9.0425501 L115.294916,0.863636364 L115.294916,7.5569271 L118.961672,7.5569271 L118.5177,9.04574499 L115.294916,9.04574499 L115.294916,19.9946268 L115.291722,19.9946268 Z" id="Path" fill="#E2251D" fill-rule="nonzero"></path>
                    <path d="M137.751834,24.8636364 L147,24.8636364 L147,23.7198715 C146.22066,23.7198715 145.591076,23.071738 145.591076,22.2742797 L145.591076,0.863636364 L137,5.33702794 C138.253056,5.73099141 139.163814,6.92876742 139.163814,8.34258791 L139.163814,22.2742797 C139.163814,23.071738 138.531174,23.7198715 137.75489,23.7198715 L137.75489,24.8636364 L137.751834,24.8636364 Z" id="Path" fill="#E2251D" fill-rule="nonzero"></path>
                    <path d="M21,21.8636364 C18.9623824,21.8636364 17.0846395,21.180329 15.5862069,20.0321231 C15.6018809,19.8261949 15.6112853,19.6202666 15.6144201,19.4143384 C15.6332288,18.0633244 15.3824451,16.9026379 15,15.8636364 C15.5673981,16.0726847 16.153605,16.228691 16.7429467,16.3316551 C17.2946708,16.4252588 17.8495298,16.4720607 18.4075235,16.4751808 C18.6520376,16.4751808 18.8965517,16.4658205 19.137931,16.4470997 C20.30721,17.9416395 21,19.8230747 21,21.8636364" id="Path" fill="#4C8B32" fill-rule="nonzero"></path>
                    <path d="M10,12.3618721 C10,11.797299 10.1868829,11.2785975 10.5007052,10.8622249 C10.7016925,11.2503689 10.909732,11.6243985 11.1248237,11.9878424 C11.6043724,12.8029448 12.1050776,13.5862899 12.5564175,14.436678 C12.6269394,14.5707641 12.6974612,14.7083788 12.764457,14.849522 C12.6763047,14.8601078 12.5916784,14.8636364 12.5,14.8636364 C11.1177715,14.8636364 10,13.745076 10,12.3618721 M12.235543,9.87775069 C12.3236953,9.86716495 12.4118477,9.86363636 12.5,9.86363636 C13.8787024,9.86363636 15,10.9821967 15,12.3654007 C15,12.9405594 14.8060649,13.4698467 14.4816643,13.8897479 C14.3229901,13.5862899 14.1572638,13.289889 13.9880113,13.0005453 C13.5014104,12.1607429 12.9866008,11.3385834 12.5282087,10.4564381 C12.422426,10.2658947 12.3272214,10.0718227 12.235543,9.87775069" id="Shape" fill="#E2251D" fill-rule="nonzero"></path>
                    <path d="M12.5723396,10.6805134 C13.1398964,9.73964965 13.5033878,8.70948354 13.6564368,7.65380248 C13.9529693,7.2328058 14.2845755,6.84051344 14.648067,6.4769254 C15.6652053,5.45632739 16.9278597,4.67812141 18.3371861,4.23798852 C18.4583499,4.19333736 18.4679155,4.18376925 18.6464727,4.1486862 C18.984456,4.08170945 19.9824631,3.87440048 20.4862495,4.38151012 C20.9677162,4.8631048 20.7764049,5.90921776 20.7126345,6.26004832 C20.6998804,6.33978254 20.6711837,6.40994866 20.642487,6.49287224 C20.2024711,7.91852008 19.4212834,9.19426759 18.391391,10.2212443 C19.8326026,10.2212443 21.2738143,10.5625068 22.581108,11.2482211 C22.6990833,11.3024404 22.7118374,11.3024404 22.8648864,11.4013108 C23.1518533,11.5926729 24,12.1508124 24,12.8684204 C24,13.547756 23.1231566,14.153736 22.8298127,14.3578556 C22.7628537,14.4056962 22.6958948,14.4344005 22.6161817,14.4758623 C21.2993224,15.174334 19.8453567,15.5219752 18.3882025,15.5219752 C17.871662,15.5219752 17.3583101,15.4773241 16.8481467,15.3912111 C15.779992,15.2062277 14.7405341,14.8298822 13.7807892,14.2621746 C13.9657234,14.0229719 14.1028298,13.7486862 14.1825428,13.4488855 C15.1231566,14.0197825 16.1562375,14.3801812 17.2148266,14.5332709 C18.9047429,14.7788523 20.6552411,14.4949985 22.1984855,13.6785201 C22.2367477,13.6593839 22.2781985,13.643437 22.3132722,13.6211114 C22.4631327,13.5158623 22.6895177,13.3595832 22.8776405,13.1650317 C22.9701076,13.0693506 23.033878,12.9896164 23.0689518,12.9258291 C23.0848944,12.8971247 23.0657633,12.8110118 23.0689518,12.8014437 C23.0370666,12.7408457 22.9796732,12.6674902 22.8967716,12.5781879 C22.7214029,12.3995832 22.5109605,12.259251 22.3642886,12.1603805 C22.27501,12.0997825 22.2495018,12.0965932 22.1825428,12.0646995 C20.6456756,11.2609786 18.8983659,10.9803141 17.2180151,11.2258955 C16.1626146,11.3789852 15.1295337,11.7393839 14.1921084,12.3102809 C14.1379035,12.1061613 14.0581905,11.9147992 13.9561578,11.7393839 C15.0243125,11.4778556 16.0127541,10.9994503 16.8672778,10.3615766 C18.2351534,9.34097856 19.2714229,7.89938387 19.7847748,6.231344 C19.7975289,6.18988221 19.8198485,6.15160979 19.8262256,6.11014799 C19.8517338,5.9666264 19.9059386,5.68596195 19.9027501,5.38935065 C19.8995616,5.25539716 19.7975289,5.0672244 19.7783978,4.99705829 C19.7146273,4.97792208 19.6221602,4.9651646 19.4978079,4.96197523 C19.2204065,4.95878587 18.9589478,5.0161945 18.8250299,5.04170945 C18.7198087,5.06403503 18.7006776,5.07679251 18.6273416,5.10230746 C16.9693105,5.62217457 15.5376644,6.65871942 14.5205261,8.02376925 C13.8828218,8.87852008 13.4109207,9.86084567 13.1462734,10.9260948 C12.9677162,10.8112776 12.7732164,10.7315433 12.5723396,10.6805134 M10.5221204,11.1589188 C9.94818653,10.0490184 9.50817059,8.77646028 9.38381825,7.11479915 C9.37425269,6.9872244 9.36468713,6.85646028 9.35831008,6.7225068 C9.35512156,6.6300151 9.35512156,6.53752341 9.35512156,6.44184234 C9.35831008,5.01300513 9.70267039,3.58416793 10.3818254,2.28290547 C10.4360303,2.16489882 10.4360303,2.15214135 10.538063,1.99905165 C10.7293743,1.71200846 11.2873655,0.863636364 12.0047828,0.863636364 C12.6839378,0.863636364 13.2897569,1.73752341 13.4938222,2.03094533 C13.5416501,2.09792208 13.5703468,2.16489882 13.6117975,2.24463304 C14.1219609,3.21101178 14.4471901,4.250746 14.581108,5.30961643 C14.3866082,5.47546361 14.1984855,5.65087889 14.0167397,5.83267291 C13.9242726,5.9251646 13.8318055,6.02084567 13.7425269,6.11652673 C13.6915106,4.92370281 13.382224,3.74044699 12.8082902,2.65925098 C12.789159,2.62097856 12.7764049,2.57632739 12.7508968,2.54443371 C12.6456756,2.39453337 12.489438,2.16808819 12.2949382,1.97991543 C12.1992826,1.88742374 12.1195695,1.82682573 12.0557991,1.78855331 C12.0271024,1.77260646 11.9410124,1.79174268 11.9314468,1.79174268 C11.8708649,1.82363636 11.7975289,1.881045 11.7082503,1.96396859 C11.5296931,2.13938387 11.3893982,2.34988221 11.290554,2.49659317 C11.2299721,2.5858955 11.2267836,2.61141045 11.1948984,2.67838719 C10.5284974,3.9541347 10.2223994,5.37021444 10.2766042,6.77672606 C10.2989239,7.04463304 10.3754484,7.77180912 10.6018334,8.6935367 C11.5488242,12.5813772 14.4822639,14.4726729 14.648067,18.8197825 C14.6576325,19.0111447 14.660821,19.2056962 14.6576325,19.403437 C14.6353129,20.7940018 14.2909526,22.1813772 13.6309287,23.4443673 C13.5767238,23.5623739 13.5767238,23.5751314 13.4778796,23.7282211 C13.2865684,24.0120749 12.7285771,24.8636364 12.0111598,24.8636364 C11.3320048,24.8636364 10.7261857,23.9897493 10.5221204,23.6963274 C10.4742925,23.6293506 10.4455959,23.5623739 10.4041451,23.4826397 C9.89398167,22.5162609 9.56875249,21.4765267 9.4348346,20.4176563 C9.6293344,20.2486198 9.81745715,20.0763938 9.99920287,19.8945998 C10.09167,19.8021081 10.1841371,19.7064271 10.2734157,19.610746 C10.324432,20.8035699 10.6369071,21.9868257 11.2076525,23.0680217 C11.2267836,23.1062942 11.2427262,23.1509453 11.2650458,23.182839 C11.370267,23.3327394 11.5265046,23.5591845 11.7210044,23.7473573 C11.81666,23.839849 11.8963731,23.900447 11.9601435,23.9387194 C11.9888402,23.9546663 12.0749303,23.9355301 12.0844958,23.9355301 C12.1450777,23.9036364 12.2184137,23.8462277 12.3076923,23.7633041 C12.4862495,23.5878889 12.6265444,23.3773905 12.7253886,23.2306796 C12.7859705,23.1413772 12.789159,23.1158623 12.8210442,23.0488855 C13.4938222,21.7603805 13.7999203,20.328354 13.7393384,18.9090849 C13.7202073,18.6156629 13.6564368,17.9841679 13.4651255,17.1772576 C13.2738143,16.3799154 12.9996014,15.6782543 12.6839378,15.0244337 C12.0398565,13.643437 11.1980869,12.5112111 10.5221204,11.1589188 M11.4308489,15.053138 C10.8632921,15.9940018 10.4998007,17.0241679 10.3467517,18.079849 C10.0502192,18.5008457 9.71861299,18.893138 9.35512156,19.2567261 C8.33798326,20.2773241 7.07532882,21.0555301 5.66600239,21.4956629 C5.54483858,21.5403141 5.53527302,21.5498822 5.35671582,21.5881546 C5.01873256,21.6551314 4.02391391,21.8624404 3.51693902,21.3553307 C3.0354723,20.873736 3.22678358,19.8276231 3.29055401,19.4767925 C3.30649661,19.3970583 3.33200478,19.3268922 3.36070147,19.2407792 C3.80071742,17.8151314 4.58190514,16.5393839 5.60860901,15.5124071 C4.16739737,15.5124071 2.72618573,15.1711447 1.41889199,14.4886198 C1.3009167,14.4344005 1.28816261,14.4344005 1.13511359,14.3323407 C0.851335193,14.1409786 0,13.582839 0,12.865231 C0,12.1858955 0.873654843,11.5799154 1.1669988,11.3757958 C1.23395775,11.3279553 1.3009167,11.299251 1.38062973,11.2577892 C2.69748904,10.5593174 4.15145476,10.2116762 5.60542049,10.2116762 C4.58509366,9.19426759 3.81028298,7.93127756 3.36707852,6.52157656 C3.32243922,6.40038055 3.31287365,6.39081244 3.2746114,6.21220779 C3.20765245,5.8741347 3.00039857,4.87905165 3.50737346,4.37194201 C3.98884018,3.89034733 5.03467517,4.08170945 5.38541251,4.14549683 C5.46512555,4.16144367 5.53527302,4.18695862 5.61817457,4.21566294 C6.66400957,4.53778919 7.62694301,5.04489882 8.47190116,5.69871942 C8.45277003,5.94749018 8.44320446,6.19626095 8.44320446,6.44184234 C8.44639299,6.58536394 8.45277003,6.72888553 8.45914707,6.86921776 C7.57911519,6.05911809 6.52052611,5.44038055 5.34715026,5.07998188 C5.30569948,5.0672244 5.26743723,5.04489882 5.22598645,5.03852008 C5.08250299,5.01300513 4.80191311,4.95878587 4.50538063,4.96197523 C4.37146273,4.9651646 4.18333998,5.0672244 4.11319251,5.08636062 C4.09406138,5.15014799 4.08130729,5.24582905 4.07811877,5.36702507 C4.07493025,5.64450015 4.13232363,5.90602839 4.16102033,6.03998188 C4.18015145,6.14523105 4.19609406,6.16436726 4.22160223,6.23772274 C4.74133121,7.89300513 5.78078916,9.32822108 7.14228776,10.3456297 C7.99681148,10.9835035 8.97887605,11.4555301 10.0438422,11.7202477 C9.93862096,11.8956629 9.85890793,12.0870251 9.80789159,12.2911447 C8.8672778,11.7202477 7.83419689,11.359849 6.77560781,11.2067593 C5.08569151,10.9611779 3.3351933,11.2450317 1.79194898,12.0615101 C1.75368673,12.0806463 1.70904743,12.0934038 1.67716222,12.1189188 C1.52730171,12.2241679 1.3009167,12.380447 1.11279394,12.5749985 C1.02032682,12.6706796 0.959744918,12.7504138 0.921482662,12.8142011 C0.905540056,12.8429055 0.924671184,12.9290184 0.924671184,12.9385865 C0.956556397,12.9991845 1.01394978,13.07254 1.09685134,13.1618423 C1.27222001,13.340447 1.48266242,13.4807792 1.6293344,13.5796497 C1.71861299,13.6402477 1.74412116,13.643437 1.81108011,13.6753307 C3.34794739,14.4790516 5.09525707,14.7597161 6.77560781,14.5141347 C7.83100837,14.361045 8.86408928,14.0006463 9.80470307,13.4329387 C9.85890793,13.6370583 9.93862096,13.8284204 10.0406536,14.0038357 C8.972499,14.2653639 7.98724591,14.7405799 7.1327222,15.3784536 C5.76484655,16.3990516 4.7253886,17.8438357 4.20884815,19.5118756 C4.19609406,19.5533374 4.17377441,19.5947992 4.16739737,19.6330716 C4.1418892,19.7765932 4.08768434,20.0572576 4.09087286,20.3538689 C4.09406138,20.4878224 4.19609406,20.6759952 4.21522519,20.7461613 C4.27899562,20.7652975 4.37465126,20.778055 4.49581507,20.7812443 C4.77640494,20.7844337 5.03786369,20.7270251 5.16859306,20.6983207 C5.27381427,20.6759952 5.29613392,20.6632377 5.36628139,20.6377227 C7.02431248,20.1178556 8.45595855,19.0813108 9.47309685,17.7162609 C10.1108011,16.8615101 10.5827023,15.8791845 10.844161,14.8139354 C11.0354723,14.9191845 11.2267836,15.0021081 11.4308489,15.053138" id="Shape" fill="#E2251D" fill-rule="nonzero"></path>
                </g>
                <g id="dropdown-toggle" transform="translate(300.000000, 12.000000)">
                    <g id="BG-/-Nav-/-Selection-/-On" fill="#E2251D">
                        <rect id="BG" x="0" y="0" width="160" height="40" rx="4"></rect>
                    </g>
                    <text id="8:16:8:16" font-family="OpenSansCondensed-Bold, Open Sans Condensed" font-size="14" font-style="condensed" font-weight="bold" line-spacing="22" letter-spacing="0.25" fill="#FFFFFF">
                        <tspan x="40.5727539" y="24">ANAGRAFICHE</tspan>
                    </text>
                    <g filter="url(#filter-1)" id="icons/solid/caret-down-fill">
                        <g transform="translate(136.000000, 17.000000)">
                            <g id="caret-down-fill" transform="translate(0.400000, 0.600000)" fill="#000000" fill-rule="nonzero">
                                <path d="M3.1482,4.284 L0.2706,0.9948 C-0.069,0.6078 0.207,-2.21939382e-07 0.7224,-2.21939382e-07 L6.4776,-2.21939382e-07 C6.7131908,-0.000201991736 6.9270983,0.137488645 7.02446958,0.352015798 C7.12184085,0.566542952 7.08465448,0.818202056 6.9294,0.9954 L4.0518,4.2834 C3.93786231,4.41378359 3.77315218,4.48858769 3.6,4.48858769 C3.42684782,4.48858769 3.26213769,4.41378359 3.1482,4.2834 L3.1482,4.284 Z" id="Path"></path>
                            </g>
                        </g>
                    </g>
                </g>
                <g id="dropdown-toggle-copy" transform="translate(476.000000, 12.000000)">
                    <g id="UI-/-Navigation-/-Elements/-State/-Off" fill="#0572E8">
                        <rect id="BG" x="0" y="0" width="160" height="40" rx="4"></rect>
                    </g>
                    <text id="8:16:8:16" font-family="OpenSansCondensed-Bold, Open Sans Condensed" font-size="14" font-style="condensed" font-weight="bold" line-spacing="22" letter-spacing="0.25" fill="#FFFFFF">
                        <tspan x="23.0849609" y="25">GESTIONE RAPPORTI</tspan>
                    </text>
                </g>
                <g id="dropdown-toggle-copy" transform="translate(652.000000, 12.000000)">
                    <g id="UI-/-Navigation-/-Elements/-State/-Off" fill="#0572E8">
                        <rect id="BG" x="0" y="0" width="220" height="40" rx="4"></rect>
                    </g>
                    <text id="8:16:8:16" font-family="OpenSansCondensed-Bold, Open Sans Condensed" font-size="14" font-style="condensed" font-weight="bold" line-spacing="22" letter-spacing="0.25" fill="#FFFFFF">
                        <tspan x="31.7382812" y="24">CONFIGURAZIONI GENERALI</tspan>
                    </text>
                </g>
            </g>
            <rect id="Rectangle" x="20" y="0" width="200" height="64"></rect>
        </g>
    </g>
</svg>