<svg id="Livello_1" data-name="Livello 1" xmlns="http://www.w3.org/2000/svg" viewBox="0 0 200 64"><title>fondital-logo</title><g id="DIREZIONE---DS"><g id="Direzione-_-Dettaglio-Menu-_-DR" data-name="Direzione-&gt;-Dettaglio-Menu-&gt;-DR"><g id="Group"><g id="logo_fondital" data-name="logo fondital"><path id="Shape" d="M105.45,46.2h.92a.81.81,0,0,0,.39-.16.79.79,0,0,0,.33-.72.81.81,0,0,0-.37-.73,1.51,1.51,0,0,0-.8-.15h-.47V46.2Zm-.38,2.8a.08.08,0,0,1-.07-.07V44.07a.08.08,0,0,1,.07-.07h1a1.51,1.51,0,0,1,1.07.3,1.34,1.34,0,0,1,.43,1.06,1.13,1.13,0,0,1-.46,1,1.27,1.27,0,0,1,.91,1.25,1.37,1.37,0,0,1-.48,1.06,1.72,1.72,0,0,1-1.19.36Zm.38-.44h.68a4.34,4.34,0,0,0,.51,0,1.21,1.21,0,0,0,.45-.16,1,1,0,0,0,.45-.81.88.88,0,0,0-.47-.8,2.36,2.36,0,0,0-1-.15h-.62v1.93Z"/><path id="Path" d="M109.37,44.43v1.63h1.53a.07.07,0,0,1,.06.07v.29s0,.07-.06.07h-1.53v2.08h1.57a.07.07,0,0,1,.06.07v.29a.07.07,0,0,1-.06.07h-1.88s-.06,0-.06-.07V44.07a.07.07,0,0,1,.06-.07h1.88s.06,0,.06.07v.29a.07.07,0,0,1-.06.07Z"/><path id="Path-2" data-name="Path" d="M114.2,48.93a.07.07,0,0,1-.06.07h-.28a.07.07,0,0,1-.06-.07V44.07a.07.07,0,0,1,.06-.07h.28a.07.07,0,0,1,.06.07Z"/><path id="Path-3" data-name="Path" d="M119,48.92c0,.08-.06.11-.11,0l-3.49-4v3.81a.08.08,0,0,1-.07.07h-.27s-.06,0-.06-.07V44.08c0-.08.06-.11.11,0l3.49,4V44.14a.08.08,0,0,1,.07-.07h.27s.06,0,.06.07Z"/><path id="Path-4" data-name="Path" d="M125,48.92c0,.08-.06.11-.11,0l-3.49-4v3.81a.08.08,0,0,1-.07.07h-.27s-.06,0-.06-.07V44.08c0-.08.06-.11.11,0l3.49,4V44.14a.08.08,0,0,1,.07-.07h.27s.06,0,.06.07Z"/><path id="Shape-2" data-name="Shape" d="M125.44,46.5a2.06,2.06,0,1,0,2.06-2.08,2.09,2.09,0,0,0-2.06,2.08m4.56,0a2.5,2.5,0,1,1-2.5-2.5,2.52,2.52,0,0,1,2.5,2.5"/><path id="Path-5" data-name="Path" d="M132.51,47.89l1.12-3.84s0,0,.06,0h.25c.05,0,.07,0,.05.09l-1.44,4.85c0,.08-.09.08-.11,0L131,44.09c0-.05,0-.09.06-.09h.25s.05,0,.06,0Z"/><path id="Shape-3" data-name="Shape" d="M135,45l-.8,2h1.6Zm-1,2.43-.6,1.51s0,0-.06,0h-.3c-.06,0-.08,0-.06-.09l1.93-4.86a.07.07,0,0,1,.13,0L137,48.91c0,.05,0,.09-.06.09h-.3s-.06,0-.06,0l-.6-1.51Z"/><path id="Path-6" data-name="Path" d="M138.72,48.93a.07.07,0,0,1-.07.07h-.31a.08.08,0,0,1-.07-.07v-4.5h-1.2a.07.07,0,0,1-.07-.07v-.29a.08.08,0,0,1,.07-.07h2.86a.08.08,0,0,1,.07.07v.29a.08.08,0,0,1-.07.07h-1.2v4.5Z"/><path id="Path-7" data-name="Path" d="M140.2,48.93a.07.07,0,0,1-.06.07h-.28a.07.07,0,0,1-.06-.07V44.07a.07.07,0,0,1,.06-.07h.28a.07.07,0,0,1,.06.07Z"/><path id="Path-8" data-name="Path" d="M142.51,47.89l1.12-3.84s0,0,.06,0h.25c.05,0,.07,0,.05.09l-1.44,4.85c0,.08-.09.08-.11,0L141,44.09c0-.05,0-.09.06-.09h.25s.05,0,.06,0Z"/><path id="Path-9" data-name="Path" d="M145.37,44.43v1.63h1.53a.07.07,0,0,1,.06.07v.29s0,.07-.06.07h-1.53v2.08h1.57a.07.07,0,0,1,.06.07v.29a.07.07,0,0,1-.06.07h-1.88s-.06,0-.06-.07V44.07a.07.07,0,0,1,.06-.07h1.88s.06,0,.06.07v.29a.07.07,0,0,1-.06.07Z"/><path id="Path-10" data-name="Path" d="M152,46.5a2.5,2.5,0,1,1,2.5,2.5,2.5,2.5,0,0,1-2.5-2.5" style="fill:#4c8b32"/><circle id="Oval" cx="154.5" cy="46.5" r="2.5" style="fill:none;stroke:#000;stroke-width:0.800000011920929px"/><path id="Path-11" data-name="Path" d="M160,46.5a2.5,2.5,0,1,1,2.5,2.5,2.5,2.5,0,0,1-2.5-2.5" style="fill:#fff"/><path id="Path-12" data-name="Path" d="M160,46.5a2.5,2.5,0,1,1,2.5,2.5A2.5,2.5,0,0,1,160,46.5Z" style="fill:none;stroke:#000;stroke-width:0.699999988079071px"/><path id="Path-13" data-name="Path" d="M168,46.5a2.5,2.5,0,1,1,2.5,2.5,2.5,2.5,0,0,1-2.5-2.5" style="fill:#e2251d"/><circle id="Oval-2" data-name="Oval" cx="170.5" cy="46.5" r="2.5" style="fill:none;stroke:#000;stroke-width:0.800000011920929px"/><path id="Shape-4" data-name="Shape" d="M78.33,36.19a2.43,2.43,0,0,1-4.86,0V25.85a2.43,2.43,0,0,1,4.86,0ZM85,31a9,9,0,1,0-9,9,9,9,0,0,0,9-9" style="fill:#e2251d"/><path id="Shape-5" data-name="Shape" d="M114.49,35.43a2.12,2.12,0,0,1-4.24,0V27a2.12,2.12,0,0,1,4.24,0Zm-.1,4.12H123v-1h-.21a1.49,1.49,0,0,1-1.49-1.48V16l-9.14,3.37a4.64,4.64,0,0,1,1.64,1.82,8.49,8.49,0,0,1,.64,3.07,5.52,5.52,0,0,0-3.91-1.74c-3.61,0-6.53,3.92-6.53,8.74S106.58,40,110.18,40a6.29,6.29,0,0,0,4.21-1.85v1.4Z" style="fill:#e2251d"/><path id="Shape-6" data-name="Shape" d="M153.78,30.44v6.25a1.8,1.8,0,0,1-1.27.43,1.68,1.68,0,0,1-1.78-1.54c0-.15,0-.35,0-.5,0-2.36,1.39-4.26,3.05-4.64M163,38.05a1.8,1.8,0,0,1-.7.16,1.64,1.64,0,0,1-1.66-1.49v-9.3c0-2.44-3.33-4.42-7.44-4.42s-7.44,2-7.44,4.42v.13a2.3,2.3,0,0,0,4.6,0v-.81c0-1.44.88-2.62,2-2.62s2,1.18,2,2.62v2.09a18,18,0,0,0-4.43,1.73,16.94,16.94,0,0,0-3.4,2.24A4,4,0,0,0,145,35.87,4.22,4.22,0,0,0,149.31,40c2.39-.13,4.36-1.06,5.1-2.3l0,0C155,39,156.76,40,158.8,40a4.93,4.93,0,0,0,4.2-1.92" style="fill:#e2251d"/><path id="Path-14" data-name="Path" d="M56,25.09h2V37.63a1.43,1.43,0,0,1-1.43,1.42v1h10v-1H66a1.42,1.42,0,0,1-1.41-1.42V25.09h2.72V23.66H64.5a7.83,7.83,0,0,1-1.23-1.74,12.52,12.52,0,0,1-.54-1.23A1.85,1.85,0,0,1,62.6,20a1.78,1.78,0,0,1,3.51-.46,2.49,2.49,0,0,0,2.45,2A2.44,2.44,0,0,0,71,19.13,2.81,2.81,0,0,0,69.64,17,4.48,4.48,0,0,0,66.87,16a4.58,4.58,0,0,0-1.86.37,15.68,15.68,0,0,0-4.15,2.73,44.46,44.46,0,0,0-4.86,6" style="fill:#e2251d"/><path id="Path-15" data-name="Path" d="M103.79,28.8A5.77,5.77,0,0,0,98,23.07a5.84,5.84,0,0,0-4.48,2.08V23L85,26.83a2.58,2.58,0,0,1,2,2.61V37.6a1.47,1.47,0,0,1-1.48,1.45h-.18v1H95.55v-1h-.48a1.55,1.55,0,0,1-1.58-1.45V28a1.85,1.85,0,0,1,1.93-1.82,1.91,1.91,0,0,1,1.93,1.89V40H106v-1h-.58a1.62,1.62,0,0,1-1.62-1.48V28.8Z" style="fill:#e2251d"/><path id="Path-16" data-name="Path" d="M125,19a3,3,0,1,1,3,3,3,3,0,0,1-3-3" style="fill:#e2251d"/><path id="Path-17" data-name="Path" d="M124,26.82c1.07,0,2,1.22,2,2.72v8.05A1.46,1.46,0,0,1,124.5,39v1H134V39a1.46,1.46,0,0,1-1.47-1.44V23l-8.48,3.76Z" style="fill:#e2251d"/><path id="Path-18" data-name="Path" d="M141.29,35.13c0,1.18,1.35,2.13,3,2.13a4,4,0,0,0,.69,0,5.43,5.43,0,0,1-10.15-2.59V24.18H133L141.29,16v6.69H145l-.44,1.49h-3.23v11Z" style="fill:#e2251d"/><path id="Path-19" data-name="Path" d="M163.75,40H173V38.86a1.43,1.43,0,0,1-1.41-1.45V16L163,20.47a3.15,3.15,0,0,1,2.16,3V37.41a1.43,1.43,0,0,1-1.41,1.45V40Z" style="fill:#e2251d"/><path id="Path-20" data-name="Path" d="M47,37a8.82,8.82,0,0,1-5.41-1.83c0-.21,0-.41,0-.62A9.74,9.74,0,0,0,41,31a9.74,9.74,0,0,0,1.74.47,10.36,10.36,0,0,0,1.67.14c.24,0,.49,0,.73,0A8.78,8.78,0,0,1,47,37" style="fill:#4c8b32"/><path id="Shape-7" data-name="Shape" d="M36,27.5a2.48,2.48,0,0,1,.5-1.5c.2.39.41.76.62,1.12.48.82,1,1.6,1.44,2.45.07.14.14.27.2.42H38.5A2.5,2.5,0,0,1,36,27.5M38.24,25h.26A2.5,2.5,0,0,1,41,27.5,2.46,2.46,0,0,1,40.48,29c-.16-.31-.32-.6-.49-.89-.49-.84-1-1.67-1.46-2.55a6.27,6.27,0,0,1-.29-.58" style="fill:#e2251d"/><path id="Shape-8" data-name="Shape" d="M38.57,25.82a8.19,8.19,0,0,0,1.09-3,8.48,8.48,0,0,1,1-1.18,9,9,0,0,1,3.69-2.24,1.37,1.37,0,0,1,.31-.08c.33-.07,1.33-.28,1.84.23s.29,1.53.22,1.88a1,1,0,0,1-.07.23,9.08,9.08,0,0,1-2.25,3.73,9.09,9.09,0,0,1,4.19,1,1.73,1.73,0,0,1,.28.16c.29.19,1.14.75,1.14,1.46s-.88,1.29-1.17,1.49a1.43,1.43,0,0,1-.21.12,9,9,0,0,1-4.23,1.05,9.9,9.9,0,0,1-1.54-.13,9.11,9.11,0,0,1-3.07-1.13,2.2,2.2,0,0,0,.4-.81,8.17,8.17,0,0,0,8,.22l.11,0a4,4,0,0,0,.57-.46,1.16,1.16,0,0,0,.19-.24.47.47,0,0,0,0-.12,1.2,1.2,0,0,0-.17-.23,4.06,4.06,0,0,0-.54-.41.66.66,0,0,0-.18-.1,8.14,8.14,0,0,0-8,.25,2.06,2.06,0,0,0-.23-.57,8.31,8.31,0,0,0,2.91-1.38,8.1,8.1,0,0,0,2.91-4.13.61.61,0,0,0,0-.12,4,4,0,0,0,.07-.72,1.47,1.47,0,0,0-.12-.4,1,1,0,0,0-.28,0,3.12,3.12,0,0,0-.67.08.68.68,0,0,0-.2.06,8.23,8.23,0,0,0-4.11,2.92,8,8,0,0,0-1.37,2.9,2.09,2.09,0,0,0-.58-.24m-2,.48a10.36,10.36,0,0,1-1.14-4.05c0-.13,0-.26,0-.39v-.28a9,9,0,0,1,1-4.16,1.73,1.73,0,0,1,.16-.28c.19-.29.75-1.14,1.46-1.14s1.29.87,1.49,1.17a1.05,1.05,0,0,1,.12.21,8.94,8.94,0,0,1,1,3.07c-.19.16-.38.34-.56.52s-.19.19-.28.28a8.12,8.12,0,0,0-.93-3.45.45.45,0,0,0-.06-.12,3,3,0,0,0-.46-.56,1.19,1.19,0,0,0-.23-.2.49.49,0,0,0-.13,0,1.19,1.19,0,0,0-.22.17,4,4,0,0,0-.42.53c-.06.09-.06.12-.1.18a8.2,8.2,0,0,0-.91,4.1,13,13,0,0,0,.32,1.92c.95,3.89,3.88,5.78,4,10.13,0,.19,0,.38,0,.58a9,9,0,0,1-1,4,1.11,1.11,0,0,1-.15.28C39.29,39.15,38.73,40,38,40s-1.28-.87-1.49-1.17a2,2,0,0,1-.12-.21,9.17,9.17,0,0,1-1-3.07c.2-.17.39-.34.57-.52l.27-.28a8.13,8.13,0,0,0,.94,3.45.45.45,0,0,0,.06.12,3.34,3.34,0,0,0,.45.56,1.55,1.55,0,0,0,.24.2.41.41,0,0,0,.12,0,1,1,0,0,0,.23-.17,4,4,0,0,0,.42-.53,1,1,0,0,0,.09-.18,8.25,8.25,0,0,0,.92-4.14,10.24,10.24,0,0,0-1.06-3.89c-.64-1.38-1.48-2.51-2.16-3.86m.91,3.89a8,8,0,0,0-1.08,3,9.28,9.28,0,0,1-1,1.17,9,9,0,0,1-3.69,2.24,1,1,0,0,1-.31.09c-.34.07-1.34.28-1.84-.23s-.29-1.53-.23-1.88a2,2,0,0,1,.07-.23,9,9,0,0,1,2.25-3.73,9,9,0,0,1-4.19-1,1.11,1.11,0,0,1-.28-.15C26.85,29.28,26,28.72,26,28s.87-1.28,1.17-1.49a2,2,0,0,1,.21-.12,9.12,9.12,0,0,1,4.23-1,9,9,0,0,1-2.24-3.69,1.25,1.25,0,0,1-.1-.31c-.06-.34-.27-1.33.24-1.84s1.52-.29,1.88-.23l.23.07a8.82,8.82,0,0,1,2.85,1.49c0,.24,0,.49,0,.74s0,.29,0,.43a8.13,8.13,0,0,0-3.11-1.79l-.12,0a5.11,5.11,0,0,0-.72-.07,1.47,1.47,0,0,0-.4.12,1,1,0,0,0,0,.28,2.74,2.74,0,0,0,.08.68,1.45,1.45,0,0,0,.06.19A8.21,8.21,0,0,0,36,26.86a2.06,2.06,0,0,0-.23.57,8.13,8.13,0,0,0-8-.23.39.39,0,0,0-.11.06,3.81,3.81,0,0,0-.57.45,2.12,2.12,0,0,0-.19.24.47.47,0,0,0,0,.12,1,1,0,0,0,.18.23,3,3,0,0,0,.53.42.75.75,0,0,0,.18.09,8.13,8.13,0,0,0,5,.84,8,8,0,0,0,3-1.08,2.87,2.87,0,0,0,.24.57,8.12,8.12,0,0,0-5.83,5.51.56.56,0,0,0,0,.12,3.6,3.6,0,0,0-.08.72,1.48,1.48,0,0,0,.13.39,1.31,1.31,0,0,0,.28,0,3,3,0,0,0,.67-.09l.2-.06a8.14,8.14,0,0,0,4.1-2.92A7.92,7.92,0,0,0,36.84,30a2.44,2.44,0,0,0,.59.24" style="fill:#e2251d"/></g></g><rect id="Rectangle" width="200" height="64" style="fill:none"/></g></g></svg>