<?xml version="1.0" encoding="utf-8"?>
<!-- Generator: Adobe Illustrator 25.2.0, SVG Export Plug-In . SVG Version: 6.00 Build 0)  -->
<svg version="1.1" id="Livello_1" xmlns="http://www.w3.org/2000/svg" xmlns:xlink="http://www.w3.org/1999/xlink" x="0px" y="0px"
	 viewBox="0 0 472 117" style="enable-background:new 0 0 472 117;" xml:space="preserve">
<style type="text/css">
	.st0{fill:#4C8B32;}
	.st1{fill:none;stroke:#000000;stroke-width:0.8;stroke-miterlimit:3.864;}
	.st2{fill:#FFFFFF;}
	.st3{fill:none;stroke:#000000;stroke-width:0.7;stroke-miterlimit:3.864;}
	.st4{fill:#E2251D;}
</style>
<g>
	<path d="M252.13,102.24h1.32c0.46,0,0.87,0.01,1.27-0.04c0.38-0.05,0.73-0.17,1.1-0.43c0.72-0.52,0.95-1.15,0.95-2.06
		c0-0.85-0.33-1.66-1.05-2.11c-0.64-0.4-1.44-0.41-2.27-0.41h-1.32V102.24z M251.05,110.24c-0.11,0-0.2-0.1-0.2-0.2V96.15
		c0-0.11,0.1-0.2,0.2-0.2h2.78c1.05,0,2.12,0.07,3.01,0.86c0.91,0.79,1.23,1.88,1.23,3.03c0,1.18-0.41,2.1-1.31,2.76
		c1.55,0.51,2.58,1.87,2.58,3.58c0,1.18-0.45,2.25-1.36,3.03c-1.03,0.88-2.12,1.04-3.37,1.04H251.05z M252.13,109h1.91
		c0.48,0,0.97,0.01,1.44-0.05c0.46-0.06,0.89-0.19,1.28-0.45c0.8-0.54,1.27-1.34,1.27-2.3c0-0.95-0.47-1.89-1.32-2.3
		c-0.8-0.4-1.91-0.42-2.84-0.42h-1.75V109z"/>
	<path d="M263.17,97.18v4.64h5.4c0.11,0,0.2,0.1,0.2,0.2v0.83c0,0.11-0.1,0.2-0.2,0.2h-5.4V109h5.54c0.11,0,0.2,0.1,0.2,0.2v0.83
		c0,0.11-0.1,0.2-0.2,0.2h-6.63c-0.11,0-0.2-0.1-0.2-0.2V96.15c0-0.11,0.1-0.2,0.2-0.2h6.63c0.11,0,0.2,0.1,0.2,0.2v0.83
		c0,0.11-0.1,0.2-0.2,0.2H263.17z"/>
	<path d="M279.47,110.03c0,0.11-0.1,0.2-0.2,0.2h-0.88c-0.11,0-0.2-0.1-0.2-0.2V96.15c0-0.11,0.1-0.2,0.2-0.2h0.88
		c0.11,0,0.2,0.1,0.2,0.2V110.03z"/>
	<path d="M295.63,110.49c0,0.23-0.19,0.31-0.35,0.14l-11.31-12.02v11.42c0,0.11-0.1,0.2-0.2,0.2h-0.88c-0.11,0-0.2-0.1-0.2-0.2
		V95.96c0-0.23,0.19-0.31,0.35-0.14l11.31,11.93V96.15c0-0.11,0.1-0.2,0.2-0.2h0.88c0.11,0,0.2,0.1,0.2,0.2V110.49z"/>
	<path d="M311.78,110.49c0,0.23-0.19,0.31-0.35,0.14l-11.31-12.02v11.42c0,0.11-0.1,0.2-0.2,0.2h-0.88c-0.11,0-0.2-0.1-0.2-0.2
		V95.96c0-0.23,0.19-0.31,0.35-0.14l11.31,11.93V96.15c0-0.11,0.1-0.2,0.2-0.2h0.88c0.11,0,0.2,0.1,0.2,0.2V110.49z"/>
	<path d="M315.45,103.09c0,3.31,2.76,6.1,6.11,6.1c3.33,0,6.11-2.8,6.11-6.1c0-3.31-2.78-6.1-6.11-6.1
		C318.21,97,315.45,99.78,315.45,103.09 M328.97,103.09c0,4.02-3.39,7.33-7.41,7.33c-4.01,0-7.41-3.31-7.41-7.33
		c0-4.02,3.37-7.33,7.41-7.33C325.58,95.76,328.97,99.07,328.97,103.09"/>
	<path d="M335.18,107.44l3.93-11.36c0.02-0.06,0.13-0.14,0.19-0.14h0.88c0.16,0,0.25,0.12,0.19,0.27l-5.05,14.35
		c-0.08,0.23-0.31,0.23-0.38,0l-4.99-14.35c-0.05-0.15,0.03-0.27,0.19-0.27h0.88c0.06,0,0.17,0.08,0.19,0.14L335.18,107.44z"/>
	<path d="M345.12,98.48l-2.42,5.96h4.83L345.12,98.48z M342.2,105.67l-1.81,4.44c-0.02,0.05-0.13,0.13-0.19,0.13h-0.9
		c-0.17,0-0.25-0.12-0.19-0.28l5.82-14.35c0.09-0.21,0.29-0.21,0.38,0l5.8,14.35c0.06,0.16-0.02,0.28-0.19,0.28h-0.9
		c-0.06,0-0.17-0.07-0.19-0.13l-1.81-4.44H342.2z"/>
	<path d="M355.07,110.03c0,0.11-0.1,0.2-0.2,0.2h-0.88c-0.11,0-0.2-0.1-0.2-0.2V97.18h-3.39c-0.11,0-0.2-0.1-0.2-0.2v-0.83
		c0-0.11,0.1-0.2,0.2-0.2h8.07c0.11,0,0.2,0.1,0.2,0.2v0.83c0,0.11-0.1,0.2-0.2,0.2h-3.39V110.03z"/>
	<path d="M361.78,110.03c0,0.11-0.1,0.2-0.2,0.2h-0.88c-0.11,0-0.2-0.1-0.2-0.2V96.15c0-0.11,0.1-0.2,0.2-0.2h0.88
		c0.11,0,0.2,0.1,0.2,0.2V110.03z"/>
	<path d="M368.81,107.44l3.93-11.36c0.02-0.06,0.13-0.14,0.19-0.14h0.88c0.16,0,0.25,0.12,0.19,0.27l-5.05,14.35
		c-0.08,0.23-0.31,0.23-0.38,0l-4.99-14.35c-0.05-0.15,0.03-0.27,0.19-0.27h0.88c0.06,0,0.17,0.08,0.19,0.14L368.81,107.44z"/>
	<path d="M377.12,97.18v4.64h5.4c0.11,0,0.2,0.1,0.2,0.2v0.83c0,0.11-0.1,0.2-0.2,0.2h-5.4V109h5.54c0.11,0,0.2,0.1,0.2,0.2v0.83
		c0,0.11-0.1,0.2-0.2,0.2h-6.63c-0.11,0-0.2-0.1-0.2-0.2V96.15c0-0.11,0.1-0.2,0.2-0.2h6.63c0.11,0,0.2,0.1,0.2,0.2v0.83
		c0,0.11-0.1,0.2-0.2,0.2H377.12z"/>
	<path class="st0" d="M399.35,103.26c0-4.25,3.44-7.69,7.69-7.69c4.25,0,7.69,3.44,7.69,7.69c0,4.25-3.44,7.69-7.69,7.69
		C402.79,110.95,399.35,107.51,399.35,103.26"/>
	<circle class="st1" cx="407.04" cy="103.26" r="7.69"/>
	<path class="st2" d="M423.7,103.26c0-4.25,3.44-7.69,7.69-7.69c4.25,0,7.69,3.44,7.69,7.69c0,4.25-3.44,7.69-7.69,7.69
		C427.15,110.95,423.7,107.51,423.7,103.26"/>
	<path class="st3" d="M423.7,103.26c0-4.25,3.44-7.69,7.69-7.69c4.25,0,7.69,3.44,7.69,7.69c0,4.25-3.44,7.69-7.69,7.69
		C427.15,110.95,423.7,107.51,423.7,103.26z"/>
	<path class="st4" d="M448.06,103.26c0-4.25,3.44-7.69,7.69-7.69c4.25,0,7.69,3.44,7.69,7.69c0,4.25-3.44,7.69-7.69,7.69
		C451.5,110.95,448.06,107.51,448.06,103.26"/>
	<circle class="st1" cx="455.75" cy="103.26" r="7.69"/>
	<path class="st4" d="M165.88,70.25c0,4.15-3.41,7.51-7.62,7.51c-4.21,0-7.62-3.36-7.62-7.51V38.09c0-4.15,3.41-7.51,7.62-7.51
		c4.21,0,7.62,3.36,7.62,7.51V70.25z M186.8,54.11c0-15.46-12.63-27.98-28.22-27.98s-28.22,12.53-28.22,27.98S143,82.1,158.58,82.1
		S186.8,69.57,186.8,54.11"/>
	<path class="st4" d="M280.9,69.28c0,3.56-2.93,6.45-6.55,6.45s-6.55-2.89-6.55-6.45V43.36c0-3.57,2.93-6.45,6.55-6.45
		s6.55,2.89,6.55,6.45V69.28z M280.58,81.98h26.61v-3.07h-0.64c-2.55,0-4.61-2.04-4.61-4.55V9.4l-28.22,10.37
		c2.41,1.68,3.63,3.03,5.04,5.61c1.82,3.31,1.98,9.47,1.98,9.47c-3.37-3.36-7.54-5.35-12.07-5.35c-11.14,0-20.17,12.06-20.17,26.93
		s7.96,26.93,19.1,26.93c4.55,0,9.61-2.32,12.98-5.71V81.98z"/>
	<path class="st4" d="M403.37,51.57l-0.01,19.95c-1.01,0.96-2.32,1.38-3.92,1.38c-3.05,0-5.53-2.2-5.53-4.92
		c-0.03-0.47,0-1.11,0-1.59C393.92,58.85,398.21,52.79,403.37,51.57 M431.96,75.88c-0.6,0.27-1.47,0.51-2.18,0.51
		c-2.64,0-5.15-2.16-5.15-4.76V41.95c0-7.8-10.33-14.12-23.07-14.12c-12.74,0-23.07,6.32-23.07,14.12v0.42
		c0,3.89,3.2,7.04,7.14,7.04c3.94,0,7.14-3.15,7.14-7.04v-2.59c0-4.62,2.71-8.36,6.06-8.36c3.35,0,6.06,3.74,6.06,8.36v6.67
		c-5.57,1.52-8.66,2.75-13.73,5.5c-4.37,2.37-6.72,3.91-10.55,7.15c-2.74,2.41-4.47,5.92-4.47,9.83c0,7.27,5.98,13.17,13.36,13.17
		c7.42-0.41,13.52-3.39,15.82-7.35l0.11,0.15c1.8,4.11,7.17,7.09,13.52,7.09C424.78,81.99,429.79,79.47,431.96,75.88"/>
	<path class="st4" d="M94.63,35.76h6.33v38.99c0,2.42-2.05,4.39-4.51,4.39v2.96h31.44v-2.96h-1.66c-2.46,0-4.45-1.97-4.45-4.39
		V35.76h8.58v-4.44h-8.91c-1.75-1.91-2.62-3.12-3.86-5.4c-0.79-1.44-1.73-3.84-1.73-3.84c-0.25-0.63-0.39-1.31-0.39-2.03
		c0-3.07,2.52-5.56,5.63-5.56c2.61,0,4.8,1.75,5.44,4.12c0.65,3.54,3.97,6.21,7.75,6.21c4.24,0,7.69-3.39,7.69-7.58
		c0-3.02-2.18-5.28-4.3-6.78c-2.41-1.85-5.44-2.94-8.73-2.94c-2.09,0-4.1,0.36-5.89,1.16c0,0-6.97,2.86-13.09,8.46
		C103.14,23.4,94.63,35.76,94.63,35.76"/>
	<path class="st4" d="M245.6,47.03c0-9.9-8.09-17.93-18.08-17.93c-5.61,0-10.62,2.53-13.94,6.51l0.04-6.72l-26.5,11.99
		c3.75,1.13,6.12,3.9,6.12,8.16v25.55c0,2.51-2.07,4.55-4.61,4.55h-0.54v2.96h31.87v-2.96h-1.5c-2.55,0-4.93-2.04-4.93-4.55V44.54
		c0-3.27,2.69-5.71,6.01-5.71c3.32,0,6.01,2.65,6.01,5.92V82.1h26.93v-2.96h-1.82c-2.55,0-5.04-2.14-5.04-4.66V47.03z"/>
	<path class="st4" d="M314.05,15.6c0-5.46,4.49-9.89,10.03-9.89c5.54,0,10.03,4.43,10.03,9.89c0,5.46-4.49,9.89-10.03,9.89
		C318.54,25.49,314.05,21.07,314.05,15.6"/>
	<path class="st4" d="M308.53,40.45c3.35,0,6.17,3.84,6.17,8.57v25.39c0,2.51-2.07,4.55-4.61,4.55v3.07h29.83v-3.07
		c-2.55,0-4.61-2.04-4.61-4.55V28.39l-26.61,11.85L308.53,40.45z"/>
	<path class="st4" d="M362.85,67.82c0,3.68,4.23,6.67,9.44,6.67c0.74,0,1.48,0.08,2.17-0.04c-2.89,5.13-8.45,8.61-14.83,8.61
		c-9.36,0-16.95-7.48-16.95-16.72v-32.8h-5.79l25.97-25.6v20.95h11.48l-1.39,4.66h-10.09V67.82z"/>
	<path class="st4" d="M432.96,82.1h30.26v-3.6c-2.55,0-4.61-2.04-4.61-4.55V6.56l-28.11,14.08c4.1,1.24,7.08,5.01,7.08,9.46v43.85
		c0,2.51-2.07,4.55-4.61,4.55V82.1z"/>
	<path class="st0" d="M68.59,72.58c-6.5,0-12.49-2.19-17.27-5.87c0.05-0.66,0.08-1.32,0.09-1.98c0.06-4.33-0.74-8.05-1.96-11.38
		c1.81,0.67,3.68,1.17,5.56,1.5c1.76,0.3,3.53,0.45,5.31,0.46c0.78,0,1.56-0.03,2.33-0.09C66.38,60.01,68.59,66.04,68.59,72.58"/>
	<path class="st4" d="M33.19,44.16c0-1.6,0.53-3.07,1.42-4.25c0.57,1.1,1.16,2.16,1.77,3.19c1.36,2.31,2.78,4.53,4.06,6.94
		c0.2,0.38,0.4,0.77,0.59,1.17c-0.25,0.03-0.49,0.04-0.75,0.04C36.36,51.25,33.19,48.08,33.19,44.16 M39.53,37.12
		c0.25-0.03,0.5-0.04,0.75-0.04c3.91,0,7.09,3.17,7.09,7.09c0,1.63-0.55,3.13-1.47,4.32c-0.45-0.86-0.92-1.7-1.4-2.52
		c-1.38-2.38-2.84-4.71-4.14-7.21C40.06,38.22,39.79,37.67,39.53,37.12"/>
	<path class="st4" d="M42.07,37.31c1.78-2.95,2.92-6.18,3.4-9.49c0.93-1.32,1.97-2.55,3.11-3.69c3.19-3.2,7.15-5.64,11.57-7.02
		c0.38-0.14,0.41-0.17,0.97-0.28c1.06-0.21,4.19-0.86,5.77,0.73c1.51,1.51,0.91,4.79,0.71,5.89c-0.04,0.25-0.13,0.47-0.22,0.73
		c-1.38,4.47-3.83,8.47-7.06,11.69c4.52,0,9.04,1.07,13.14,3.22c0.37,0.17,0.41,0.17,0.89,0.48c0.9,0.6,3.56,2.35,3.56,4.6
		c0,2.13-2.75,4.03-3.67,4.67c-0.21,0.15-0.42,0.24-0.67,0.37c-4.13,2.19-8.69,3.28-13.26,3.28c-1.62,0-3.23-0.14-4.83-0.41
		c-3.35-0.58-6.61-1.76-9.62-3.54c0.58-0.75,1.01-1.61,1.26-2.55c2.95,1.79,6.19,2.92,9.51,3.4c5.3,0.77,10.79-0.12,15.63-2.68
		c0.12-0.06,0.25-0.11,0.36-0.18c0.47-0.33,1.18-0.82,1.77-1.43c0.29-0.3,0.49-0.55,0.6-0.75c0.05-0.09-0.01-0.36,0-0.39
		c-0.1-0.19-0.28-0.42-0.54-0.7c-0.55-0.56-1.21-1-1.67-1.31c-0.28-0.19-0.36-0.2-0.57-0.3c-4.82-2.52-10.3-3.4-15.57-2.63
		c-3.31,0.48-6.55,1.61-9.49,3.4c-0.17-0.64-0.42-1.24-0.74-1.79c3.35-0.82,6.45-2.32,9.13-4.32c4.29-3.2,7.54-7.72,9.15-12.95
		c0.04-0.13,0.11-0.25,0.13-0.38c0.08-0.45,0.25-1.33,0.24-2.26c-0.01-0.42-0.33-1.01-0.39-1.23c-0.2-0.06-0.49-0.1-0.88-0.11
		c-0.87-0.01-1.69,0.17-2.11,0.25c-0.33,0.07-0.39,0.11-0.62,0.19c-5.2,1.63-9.69,4.88-12.88,9.16c-2,2.68-3.48,5.76-4.31,9.1
		C43.31,37.72,42.7,37.47,42.07,37.31 M35.64,38.81c-1.8-3.48-3.18-7.47-3.57-12.68c-0.03-0.4-0.06-0.81-0.08-1.23
		c-0.01-0.29-0.01-0.58-0.01-0.88c0.01-4.48,1.09-8.96,3.22-13.04c0.17-0.37,0.17-0.41,0.49-0.89c0.6-0.9,2.35-3.56,4.6-3.56
		c2.13,0,4.03,2.74,4.67,3.66c0.15,0.21,0.24,0.42,0.37,0.67c1.6,3.03,2.62,6.29,3.04,9.61c-0.61,0.52-1.2,1.07-1.77,1.64
		c-0.29,0.29-0.58,0.59-0.86,0.89c-0.16-3.74-1.13-7.45-2.93-10.84c-0.06-0.12-0.1-0.26-0.18-0.36c-0.33-0.47-0.82-1.18-1.43-1.77
		c-0.3-0.29-0.55-0.48-0.75-0.6c-0.09-0.05-0.36,0.01-0.39,0.01c-0.19,0.1-0.42,0.28-0.7,0.54c-0.56,0.55-1,1.21-1.31,1.67
		c-0.19,0.28-0.2,0.36-0.3,0.57c-2.09,4-3.05,8.44-2.88,12.85c0.07,0.84,0.31,3.12,1.02,6.01c2.97,12.19,12.17,18.12,12.69,31.75
		c0.03,0.6,0.04,1.21,0.03,1.83c-0.07,4.36-1.15,8.71-3.22,12.67c-0.17,0.37-0.17,0.41-0.48,0.89c-0.6,0.89-2.35,3.56-4.6,3.56
		c-2.13,0-4.03-2.74-4.67-3.66c-0.15-0.21-0.24-0.42-0.37-0.67c-1.6-3.03-2.62-6.29-3.04-9.61c0.61-0.53,1.2-1.07,1.77-1.64
		c0.29-0.29,0.58-0.59,0.86-0.89c0.16,3.74,1.14,7.45,2.93,10.84c0.06,0.12,0.11,0.26,0.18,0.36c0.33,0.47,0.82,1.18,1.43,1.77
		c0.3,0.29,0.55,0.48,0.75,0.6c0.09,0.05,0.36-0.01,0.39-0.01c0.19-0.1,0.42-0.28,0.7-0.54c0.56-0.55,1-1.21,1.31-1.67
		c0.19-0.28,0.2-0.36,0.3-0.57c2.11-4.04,3.07-8.53,2.88-12.98c-0.06-0.92-0.26-2.9-0.86-5.43c-0.6-2.5-1.46-4.7-2.45-6.75
		C40.4,46.6,37.76,43.05,35.64,38.81 M38.49,51.02c-1.78,2.95-2.92,6.18-3.4,9.49c-0.93,1.32-1.97,2.55-3.11,3.69
		c-3.19,3.2-7.15,5.64-11.57,7.02c-0.38,0.14-0.41,0.17-0.97,0.29c-1.06,0.21-4.18,0.86-5.77-0.73c-1.51-1.51-0.91-4.79-0.71-5.89
		c0.05-0.25,0.13-0.47,0.22-0.74c1.38-4.47,3.83-8.47,7.05-11.69c-4.52,0-9.04-1.07-13.14-3.21c-0.37-0.17-0.41-0.17-0.89-0.49
		c-0.89-0.6-3.56-2.35-3.56-4.6c0-2.13,2.74-4.03,3.66-4.67c0.21-0.15,0.42-0.24,0.67-0.37c4.13-2.19,8.69-3.28,13.25-3.28
		c-3.2-3.19-5.63-7.15-7.02-11.57c-0.14-0.38-0.17-0.41-0.29-0.97c-0.21-1.06-0.86-4.18,0.73-5.77c1.51-1.51,4.79-0.91,5.89-0.71
		c0.25,0.05,0.47,0.13,0.73,0.22c3.28,1.01,6.3,2.6,8.95,4.65c-0.06,0.78-0.09,1.56-0.09,2.33c0.01,0.45,0.03,0.9,0.05,1.34
		c-2.76-2.54-6.08-4.48-9.76-5.61c-0.13-0.04-0.25-0.11-0.38-0.13c-0.45-0.08-1.33-0.25-2.26-0.24c-0.42,0.01-1.01,0.33-1.23,0.39
		c-0.06,0.2-0.1,0.5-0.11,0.88c-0.01,0.87,0.17,1.69,0.26,2.11c0.06,0.33,0.11,0.39,0.19,0.62c1.63,5.19,4.89,9.69,9.16,12.88
		c2.68,2,5.76,3.48,9.1,4.31c-0.33,0.55-0.58,1.15-0.74,1.79c-2.95-1.79-6.19-2.92-9.51-3.4c-5.3-0.77-10.79,0.12-15.63,2.68
		c-0.12,0.06-0.26,0.1-0.36,0.18c-0.47,0.33-1.18,0.82-1.77,1.43c-0.29,0.3-0.48,0.55-0.6,0.75c-0.05,0.09,0.01,0.36,0.01,0.39
		c0.1,0.19,0.28,0.42,0.54,0.7c0.55,0.56,1.21,1,1.67,1.31c0.28,0.19,0.36,0.2,0.57,0.3c4.82,2.52,10.3,3.4,15.57,2.63
		c3.31-0.48,6.55-1.61,9.5-3.39c0.17,0.64,0.42,1.24,0.74,1.79c-3.35,0.82-6.44,2.31-9.12,4.31c-4.29,3.2-7.55,7.73-9.17,12.96
		c-0.04,0.13-0.11,0.26-0.13,0.38c-0.08,0.45-0.25,1.33-0.24,2.26c0.01,0.42,0.33,1.01,0.39,1.23c0.2,0.06,0.5,0.1,0.88,0.11
		c0.88,0.01,1.7-0.17,2.11-0.26c0.33-0.07,0.4-0.11,0.62-0.19c5.2-1.63,9.69-4.88,12.88-9.16c2-2.68,3.48-5.76,4.3-9.1
		C37.25,50.6,37.85,50.86,38.49,51.02"/>
</g>
</svg>
